<?xml version="1.0" encoding="UTF-8" standalone="no"?>
<svg
   xmlns:dc="http://purl.org/dc/elements/1.1/"
   xmlns:cc="http://creativecommons.org/ns#"
   xmlns:rdf="http://www.w3.org/1999/02/22-rdf-syntax-ns#"
   xmlns:svg="http://www.w3.org/2000/svg"
   xmlns="http://www.w3.org/2000/svg"
   xmlns:sodipodi="http://sodipodi.sourceforge.net/DTD/sodipodi-0.dtd"
   xmlns:inkscape="http://www.inkscape.org/namespaces/inkscape"
   sodipodi:docname="drawing.svg"
   inkscape:version="1.0 (4035a4fb49, 2020-05-01)"
   id="svg8"
   version="1.1"
   viewBox="0 0 210 297"
   height="297mm"
   width="210mm">
  <defs
     id="defs2">
    <clipPath
       clipPathUnits="userSpaceOnUse"
       id="clipPath26">
      <path
         d="M 0,1522.664 H 1525.33 V 0 H 0 Z"
         id="path24" />
    </clipPath>
    <clipPath
       clipPathUnits="userSpaceOnUse"
       id="clipPath38">
      <path
         d="M 0,1522.664 H 1525.33 V 0 H 0 Z"
         id="path36" />
    </clipPath>
    <clipPath
       clipPathUnits="userSpaceOnUse"
       id="clipPath126">
      <path
         d="M 0,1522.664 H 1525.33 V 0 H 0 Z"
         id="path124" />
    </clipPath>
    <clipPath
       clipPathUnits="userSpaceOnUse"
       id="clipPath262">
      <path
         d="M 0,1522.664 H 1525.33 V 0 H 0 Z"
         id="path260" />
    </clipPath>
  </defs>
  <sodipodi:namedview
     inkscape:window-maximized="0"
     inkscape:window-y="0"
     inkscape:window-x="81"
     inkscape:window-height="864"
     inkscape:window-width="1274"
     showgrid="false"
     inkscape:document-rotation="0"
     inkscape:current-layer="layer1"
     inkscape:document-units="mm"
     inkscape:cy="102.85714"
     inkscape:cx="887.14286"
     inkscape:zoom="0.35"
     inkscape:pageshadow="2"
     inkscape:pageopacity="0.0"
     borderopacity="1.0"
     bordercolor="#666666"
     pagecolor="#ffffff"
     id="base" />
  <metadata
     id="metadata5">
    <rdf:RDF>
      <cc:Work
         rdf:about="">
        <dc:format>image/svg+xml</dc:format>
        <dc:type
           rdf:resource="http://purl.org/dc/dcmitype/StillImage" />
        <dc:title></dc:title>
      </cc:Work>
    </rdf:RDF>
  </metadata>
  <g
     id="layer1"
     inkscape:groupmode="layer"
     inkscape:label="Layer 1">
    <g
       id="g18"
       inkscape:label="BSides 2022outlines"
       transform="matrix(0.0669344,0,0,-0.0669344,50.615839,200.42667)">
      <g
         id="g20">
        <g
           id="g22"
           clip-path="url(#clipPath26)">
          <g
             id="g28"
             transform="translate(1411.3083,763.3518)">
            <path
               d="m 0,0 c 0,-357.881 -290.12,-648 -648,-648 -357.881,0 -648,290.119 -648,648 0,357.88 290.119,648 648,648 C -290.12,648 0,357.88 0,0 Z"
               style="fill:none;stroke:#231f20;stroke-width:198;stroke-linecap:butt;stroke-linejoin:miter;stroke-miterlimit:10;stroke-dasharray:none;stroke-opacity:1"
               id="path30" />
          </g>
        </g>
      </g>
      <g
         id="g32">
        <g
           id="g34"
           clip-path="url(#clipPath38)">
          <g
             id="g40"
             transform="translate(649.731,119.0283)">
            <path
               d="m 0,0 -16.483,-6.123 c -6.235,-2.285 -10.283,-5.458 -11.465,-11.284 l -0.924,-4.548 24.3,-4.934 c 4.263,-0.866 6.288,1.091 7.125,5.211 l 1.154,5.685 14.921,-3.029 -5.28,-26.006 -61.532,12.494 4.588,22.595 c 1.53,7.531 7.693,14.566 20.419,19.675 l 11.588,4.602 c 19.303,7.622 23.1,12.474 24.514,19.436 1.096,5.401 1.746,13.703 -11.186,16.329 -15.347,3.116 -16.858,-7.97 -18.215,-14.65 l -0.49,-2.415 -16.057,3.26 c 3.519,17.337 8.579,35.693 38.989,29.518 C 32.682,60.392 34.323,48.073 31.784,35.568 27.744,15.673 22.092,8.239 0,0"
               style="fill:#ffffff;fill-opacity:1;fill-rule:nonzero;stroke:none"
               id="path42" />
          </g>
          <g
             id="g44"
             transform="translate(736.3354,138.8965)">
            <path
               d="M 0,0 C 1.037,15.044 -1.134,19.408 -11.549,20.126 -23.121,20.923 -25.221,17.87 -26.326,1.813 L -29.097,-38.4 c -0.906,-13.163 3.07,-16.635 12.183,-17.263 9.547,-0.657 13.388,4.456 14.144,15.449 z m 13.208,-50.907 c -1.385,-20.107 -13.177,-22.491 -31.403,-21.237 -24.736,1.705 -29.689,7.859 -28.484,25.363 l 4.485,65.093 c 0.936,13.598 9.05,19.579 31.617,18.025 19.528,-1.346 29.205,-8.553 28.268,-22.149 z"
               style="fill:#ffffff;fill-opacity:1;fill-rule:nonzero;stroke:none"
               id="path46" />
          </g>
          <g
             id="g48"
             transform="translate(810.3911,110.293)">
            <path
               d="m 0,0 -14.34,-10.176 c -5.431,-3.819 -8.521,-7.93 -8.157,-13.864 l 0.283,-4.632 24.749,1.516 c 4.342,0.266 5.792,2.679 5.535,6.877 l -0.355,5.789 15.197,0.93 1.622,-26.485 -62.668,-3.839 -1.409,23.012 c -0.47,7.671 3.665,16.06 14.638,24.286 l 10.004,7.44 C 1.774,23.207 4.187,28.875 3.753,35.967 3.416,41.467 1.897,49.654 -11.272,48.848 -26.903,47.891 -25.497,36.79 -25.081,29.988 l 0.151,-2.461 -16.354,-1.002 c -1.082,17.658 -0.941,36.698 30.031,38.594 27.209,1.667 31.981,-9.807 32.76,-22.544 C 22.748,22.312 19.21,13.67 0,0"
               style="fill:#ffffff;fill-opacity:1;fill-rule:nonzero;stroke:none"
               id="path50" />
          </g>
          <g
             id="g52"
             transform="translate(890.8521,121.8145)">
            <path
               d="m 0,0 -12.869,-11.982 c -4.879,-4.504 -7.398,-8.989 -6.253,-14.823 l 0.894,-4.552 24.332,4.774 c 4.268,0.838 5.386,3.422 4.577,7.548 l -1.118,5.691 14.941,2.933 5.11,-26.039 -61.611,-12.091 -4.44,22.624 c -1.48,7.541 1.51,16.402 11.298,26.008 l 8.933,8.697 C -1.31,23.238 0.333,29.176 -1.035,36.147 -2.097,41.555 -4.685,49.47 -17.633,46.929 -33,43.912 -30.138,33.096 -28.825,26.408 l 0.474,-2.419 -16.079,-3.155 c -3.406,17.359 -5.784,36.25 24.666,42.227 C 6.986,68.31 13.232,57.566 15.689,45.045 19.599,25.125 17.234,16.09 0,0"
               style="fill:#ffffff;fill-opacity:1;fill-rule:nonzero;stroke:none"
               id="path54" />
          </g>
          <g
             id="g56"
             transform="translate(258.9556,1144.2573)">
            <path
               d="m 0,0 -7.056,-9.629 c -0.51,-0.698 -0.398,-2.067 0.328,-2.599 l 25.121,-18.405 c 1.015,-0.744 2.005,-0.612 2.619,0.226 l 7.464,10.187 C 38.701,-6.264 36.324,-2.807 24.999,5.491 14.398,13.257 8.589,11.723 0,0 m -48.596,31.744 -5.112,-6.978 c -0.716,-0.977 -0.501,-2.206 0.37,-2.845 L -25.169,1.283 c 1.017,-0.745 1.614,-0.539 2.33,0.438 l 5.317,7.257 c 11.145,15.211 10.678,20.057 -3.45,30.622 -11.035,8.086 -15.558,8.611 -27.624,-7.856 M 46.962,-28.187 24.364,-59.029 -62.321,4.482 c -1.888,1.383 -4.884,1.863 -6.622,-0.51 l -6.544,-8.931 -15.246,11.17 29.959,40.89 c 16.052,21.91 26.818,26.248 53.39,6.78 C 5.539,44.413 9.026,32.421 4.402,23.369 l 0.871,-0.638 c 7.023,8.366 16.895,10.571 34.029,-1.982 19.747,-14.469 21.054,-30.654 7.66,-48.936"
               style="fill:#ffffff;fill-opacity:1;fill-rule:nonzero;stroke:none"
               id="path58" />
          </g>
          <g
             id="g60"
             transform="translate(354.9194,1218.7075)">
            <path
               d="m 0,0 c 15.483,-14.801 17.58,-31.883 -1.187,-51.518 -20.202,-21.135 -31.696,-20.917 -54.206,0.6 l 14.106,14.757 c 10.669,-10.199 15.258,-12.431 25.657,-1.551 9.564,10.004 7.693,15.862 0.666,22.578 -4.813,4.602 -8.274,6.713 -23.387,3.927 l -14.124,-2.533 c -17.717,-3.167 -33.234,-8.199 -49.498,7.347 -13.792,13.185 -17.735,29.638 1.869,50.148 20.322,21.261 30.958,20.666 52.037,0.517 L -61.934,29.765 c -11.71,11.194 -16.685,7.813 -24.216,-0.066 -8.487,-8.88 -7.474,-15.114 -1.229,-21.083 4.424,-4.229 8.612,-5.839 27.416,-1.796 l 15.591,3.286 c 13.364,2.781 27.823,3.319 38.798,-5.257 C -3.633,3.233 -1.691,1.617 0,0"
               style="fill:#ffffff;fill-opacity:1;fill-rule:nonzero;stroke:none"
               id="path62" />
          </g>
          <g
             id="g64"
             transform="translate(397.1802,1212.6377)">
            <path
               d="m 0,0 -14.843,-12.987 -67.562,77.216 14.842,12.987 z m -79.962,76.413 c -4.687,-4.102 -12.031,-3.591 -16.416,1.421 -4.386,5.013 -3.917,12.359 0.77,16.46 4.687,4.102 12.161,3.705 16.546,-1.308 4.386,-5.012 3.917,-12.359 -0.9,-16.573"
               style="fill:#ffffff;fill-opacity:1;fill-rule:nonzero;stroke:none"
               id="path66" />
          </g>
          <g
             id="g68"
             transform="translate(361.9028,1327.9536)">
            <path
               d="m 0,0 -6.724,-4.874 c -1.12,-0.813 -1.398,-1.903 -0.552,-3.069 l 52.297,-72.14 c 0.74,-1.02 1.722,-1.197 2.563,-0.587 l 7.144,5.179 c 15.268,11.068 8.278,26.9 -8.837,50.509 C 26.557,1.688 16.669,12.084 0,0 M 70.234,-88.039 41.52,-108.856 -35.606,-2.468 -6.892,18.349 c 17.371,12.592 35.154,14.59 68.751,-31.754 29.477,-40.661 26.866,-61.23 8.375,-74.634"
               style="fill:#ffffff;fill-opacity:1;fill-rule:nonzero;stroke:none"
               id="path70" />
          </g>
          <g
             id="g72"
             transform="translate(517.7856,1292.2783)">
            <path
               d="M 0,0 -53.352,-29.716 -117.377,85.239 -64.024,114.955 -54.916,98.6 -87.26,80.585 c -1.965,-1.094 -2.552,-4.306 -1.501,-6.193 l 17.255,-30.98 c 1.051,-1.887 3.7,-3.089 5.665,-1.995 l 26.601,14.816 9.984,-17.927 -26.449,-14.732 c -2.115,-1.178 -2.576,-3.907 -1.262,-6.266 l 8.671,-15.569 c 0.963,-1.73 3.097,-3.426 5.666,-1.995 l 32.646,18.183 z"
               style="fill:#ffffff;fill-opacity:1;fill-rule:nonzero;stroke:none"
               id="path74" />
          </g>
          <g
             id="g76"
             transform="translate(574.5894,1349.832)">
            <path
               d="m 0,0 c 8.109,-19.827 3.064,-36.282 -22.075,-46.563 -27.062,-11.068 -37.47,-6.185 -49.26,22.639 l 18.896,7.728 c 5.587,-13.662 8.869,-17.572 22.799,-11.874 12.81,5.239 13.488,11.351 9.808,20.348 -2.522,6.165 -4.821,9.503 -19.757,13.118 l -13.932,3.443 c -17.471,4.328 -33.692,6.057 -42.209,26.883 -7.224,17.661 -4.121,34.294 22.139,45.035 27.222,11.133 36.694,6.255 47.734,-20.736 l -18.576,-7.597 c -6.132,14.995 -12.053,13.935 -22.142,9.809 -11.368,-4.65 -12.984,-10.755 -9.712,-18.753 2.316,-5.665 5.485,-8.842 24.306,-12.813 l 15.577,-3.354 C -23.066,24.406 -9.643,19.005 -3.114,6.7 -2,4.433 -0.886,2.166 0,0"
               style="fill:#ffffff;fill-opacity:1;fill-rule:nonzero;stroke:none"
               id="path78" />
          </g>
          <g
             id="g80"
             transform="translate(690.1636,1381.4072)">
            <path
               d="m 0,0 c 4.169,-34.007 -3.43,-41.451 -28.27,-46.038 -30.114,-5.561 -38.003,2.867 -48.724,60.923 -9.479,51.331 -6.327,68.569 24.127,74.193 25.349,4.681 34.182,-0.277 42.114,-30.844 l -19.735,-3.645 c -2.877,15.577 -8.446,16.196 -18.993,14.248 -11.91,-2.199 -16.452,-5.234 -8.118,-50.37 8.074,-43.719 13.661,-46.348 25.571,-44.149 11.569,2.136 14.999,6.43 12.123,22.006 z"
               style="fill:#ffffff;fill-opacity:1;fill-rule:nonzero;stroke:none"
               id="path82" />
          </g>
          <g
             id="g84"
             transform="translate(768.2896,1348.9297)">
            <path
               d="m 0,0 -19.694,-1.052 -2.352,44.038 c -0.115,2.157 -0.883,3.558 -3.302,3.429 l -22.631,-1.209 c -1.555,-0.083 -3.014,-1.964 -2.917,-3.762 l 2.35,-44.038 -21.249,-1.135 -7.007,131.216 21.25,1.136 3.215,-60.216 c 0.097,-1.798 1.392,-3.351 2.947,-3.268 l 22.977,1.228 c 1.9,0.101 3.052,1.245 2.908,3.941 l -3.196,59.856 19.695,1.052 z"
               style="fill:#ffffff;fill-opacity:1;fill-rule:nonzero;stroke:none"
               id="path86" />
          </g>
          <g
             id="g88"
             transform="translate(819.0747,1451.0142)">
            <path
               d="M 0,0 C -0.143,0.373 -0.3,0.567 -0.645,0.595 -0.989,0.624 -1.35,0.473 -1.379,0.114 l -16.69,-54.788 c -0.045,-0.538 0.038,-1.629 1.417,-1.743 l 22.414,-1.856 c 1.206,-0.101 1.783,0.574 1.872,1.65 z m 34.394,-108.688 -20.517,1.699 -3.942,29.947 c -0.054,1.449 -1.043,2.073 -2.25,2.173 l -29.137,2.414 c -1.035,0.086 -2.301,-0.532 -2.548,-1.415 l -8.688,-29.442 -19.828,1.642 39.829,128.73 30.171,-2.5 z"
               style="fill:#ffffff;fill-opacity:1;fill-rule:nonzero;stroke:none"
               id="path90" />
          </g>
          <g
             id="g92"
             transform="translate(908.0425,1444.6929)">
            <path
               d="m 0,0 -7.93,1.8 c -1.686,0.383 -2.649,0.048 -3.008,-1.532 l -8.367,-36.863 c -0.239,-1.053 0.029,-2.221 1.378,-2.528 l 8.605,-1.953 C 9.067,-45.25 13.975,-40.827 17.241,-26.433 20.668,-11.336 20.078,-4.558 0,0 m 16.436,-119.094 -20.583,4.673 -13.171,53.749 c -0.138,0.954 -0.525,1.596 -1.537,1.826 l -3.712,0.842 c -0.844,0.191 -1.678,-0.357 -1.877,-1.235 l -10.916,-48.097 -18.897,4.29 29.084,128.142 34.418,-7.814 C 35.902,11.231 43.089,-1.66 36.476,-30.799 31.097,-54.497 20.905,-63.442 2.642,-62.619 Z"
               style="fill:#ffffff;fill-opacity:1;fill-rule:nonzero;stroke:none"
               id="path94" />
          </g>
          <g
             id="g96"
             transform="translate(986.9575,1302.5112)">
            <path
               d="M 0,0 -61.137,22.215 -16.259,145.712 3.578,138.504 -33.001,37.845 c -1.229,-3.383 0.248,-6.409 3.825,-7.709 L 6.271,17.256 Z"
               style="fill:#ffffff;fill-opacity:1;fill-rule:nonzero;stroke:none"
               id="path98" />
          </g>
          <g
             id="g100"
             transform="translate(1041.8882,1274.8555)">
            <path
               d="M 0,0 -54.677,27.212 3.949,145.011 58.626,117.799 50.285,101.04 17.139,117.537 c -2.014,1.002 -4.995,-0.329 -5.958,-2.263 L -4.618,83.528 c -0.963,-1.934 -0.456,-4.799 1.557,-5.802 L 24.2,64.159 15.058,45.788 -12.049,59.278 c -2.169,1.079 -4.68,-0.084 -5.883,-2.501 l -7.939,-15.953 c -0.883,-1.773 -1.076,-4.491 1.557,-5.802 L 9.143,18.371 Z"
               style="fill:#ffffff;fill-opacity:1;fill-rule:nonzero;stroke:none"
               id="path102" />
          </g>
          <g
             id="g104"
             transform="translate(1121.5483,1260.5781)">
            <path
               d="M 0,0 C -11.748,-17.911 -28.168,-23.072 -50.881,-8.176 -75.33,7.859 -77.2,19.203 -60.121,45.241 L -43.05,34.045 c -8.096,-12.341 -9.459,-17.259 3.127,-25.514 11.573,-7.59 16.994,-4.688 22.326,3.44 3.653,5.569 5.101,9.355 -0.379,23.712 l -5.052,13.431 c -6.327,16.85 -14.09,31.197 -1.749,50.011 10.464,15.954 25.931,22.816 49.657,7.256 C 49.474,90.251 50.817,79.683 34.824,55.3 L 18.042,66.306 c 8.886,13.547 4.658,17.826 -4.456,23.803 -10.272,6.737 -16.219,4.61 -20.957,-2.615 -3.358,-5.118 -4.181,-9.528 3.205,-27.287 L 1.893,45.47 C 7.051,32.831 10.202,18.709 3.758,6.361 2.521,4.159 1.283,1.957 0,0"
               style="fill:#ffffff;fill-opacity:1;fill-rule:nonzero;stroke:none"
               id="path106" />
          </g>
          <g
             id="g108"
             transform="translate(1228.2319,1276.5151)">
            <path
               d="m 0,0 -17.234,14.451 c -2.121,1.778 -4.652,0.377 -5.808,-1.002 l -69.397,-82.755 -15.113,12.672 69.513,82.893 c 1.619,1.93 1.98,3.977 0.257,5.422 L -55.414,46.465 -43.153,61.085 12.26,14.62 Z"
               style="fill:#ffffff;fill-opacity:1;fill-rule:nonzero;stroke:none"
               id="path110" />
          </g>
          <g
             id="g112"
             transform="translate(1260.3374,1244.7461)">
            <path
               d="m 0,0 c -8.551,9.058 -13.327,10.972 -46.704,-20.537 -32.33,-30.521 -31.86,-36.263 -23.191,-45.447 8.907,-9.436 14.101,-10.48 46.824,20.411 C 11.353,-13.075 9.738,-10.316 0,0 m -84.947,-80.194 c -21.021,22.268 -18.228,33.469 24.704,73.999 37.958,35.834 54.144,42.549 75.402,20.029 22.327,-23.651 17.704,-33.963 -24.573,-73.875 -44.241,-41.765 -54.156,-42.799 -75.533,-20.153"
               style="fill:#ffffff;fill-opacity:1;fill-rule:nonzero;stroke:none"
               id="path114" />
          </g>
          <g
             id="g116"
             transform="translate(1248.5337,1077.9468)">
            <path
               d="m 0,0 -11.624,15.934 43.942,72.315 c 0.19,0.352 0.131,0.737 0.029,0.877 -0.204,0.28 -0.553,0.453 -0.99,0.135 L -31.607,43.329 -43.231,59.263 62.923,136.7 74.546,120.767 29.877,47.921 c -0.19,-0.352 -0.276,-0.844 -0.072,-1.123 0.101,-0.14 0.596,-0.207 0.887,0.005 L 94.53,93.372 106.153,77.438 Z"
               style="fill:#ffffff;fill-opacity:1;fill-rule:nonzero;stroke:none"
               id="path118" />
          </g>
        </g>
      </g>
      <g
         id="g120">
        <g
           id="g122"
           clip-path="url(#clipPath126)">
          <g
             id="g128"
             transform="translate(576.3938,694.7551)">
            <path
               d="m 0,0 c 0.922,-0.618 1.881,-1.351 2.963,-2.006 1.074,-0.673 2.215,-1.388 3.42,-2.144 1.206,-0.756 2.477,-1.553 3.81,-2.388 1.339,-0.82 2.71,-1.75 4.205,-2.566 2.966,-1.691 6.173,-3.52 9.6,-5.475 3.488,-1.805 7.199,-3.725 11.111,-5.75 1.973,-0.966 4.027,-1.869 6.115,-2.84 2.094,-0.948 4.222,-1.97 6.425,-2.918 8.843,-3.676 18.486,-7.528 28.921,-10.622 1.301,-0.403 2.611,-0.809 3.928,-1.217 0.661,-0.2 1.319,-0.42 1.986,-0.605 0.669,-0.176 1.34,-0.353 2.014,-0.531 2.693,-0.711 5.42,-1.43 8.176,-2.158 1.374,-0.388 2.774,-0.676 4.177,-0.983 1.404,-0.303 2.815,-0.607 4.233,-0.913 1.418,-0.306 2.843,-0.613 4.274,-0.922 1.429,-0.326 2.883,-0.517 4.333,-0.784 2.905,-0.497 5.835,-0.999 8.785,-1.504 2.964,-0.38 5.95,-0.762 8.954,-1.147 3,-0.44 6.036,-0.645 9.083,-0.911 3.049,-0.225 6.109,-0.573 9.192,-0.634 3.082,-0.122 6.176,-0.243 9.278,-0.366 3.105,0.006 6.219,0.012 9.339,0.017 3.121,-0.048 6.243,0.156 9.371,0.286 3.126,0.155 6.259,0.225 9.38,0.559 3.123,0.285 6.246,0.57 9.366,0.854 3.109,0.413 6.215,0.825 9.316,1.236 3.106,0.352 6.176,0.987 9.249,1.5 3.07,0.543 6.138,1.032 9.162,1.747 3.03,0.663 6.049,1.324 9.053,1.982 2.98,0.79 5.946,1.575 8.894,2.356 2.958,0.73 5.854,1.67 8.737,2.559 1.442,0.445 2.879,0.89 4.309,1.332 0.716,0.221 1.43,0.442 2.142,0.662 0.71,0.234 1.411,0.495 2.115,0.74 2.81,0.996 5.597,1.983 8.358,2.961 0.688,0.25 1.381,0.477 2.062,0.743 0.679,0.273 1.356,0.545 2.031,0.816 1.349,0.547 2.692,1.091 4.027,1.632 5.37,2.071 10.499,4.5 15.522,6.758 0.627,0.284 1.253,0.567 1.876,0.849 0.614,0.307 1.227,0.613 1.837,0.917 1.22,0.611 2.431,1.218 3.632,1.82 2.398,1.219 4.782,2.359 7.085,3.588 2.29,1.263 4.542,2.504 6.752,3.723 2.21,1.218 4.388,2.387 6.46,3.684 2.087,1.259 4.13,2.491 6.128,3.696 0.998,0.602 1.985,1.198 2.96,1.786 0.955,0.633 1.898,1.257 2.829,1.874 1.861,1.237 3.674,2.442 5.436,3.614 0.881,0.586 1.749,1.163 2.604,1.731 0.855,0.569 1.667,1.19 2.483,1.768 3.246,2.342 6.284,4.535 9.093,6.562 2.746,2.144 5.269,4.112 7.548,5.891 1.138,0.888 2.216,1.729 3.23,2.521 0.987,0.836 1.912,1.62 2.772,2.349 1.72,1.462 3.182,2.706 4.368,3.714 2.371,2.016 3.636,3.092 3.636,3.092 0,0 -1.295,-1.024 -3.724,-2.943 -1.215,-0.959 -2.713,-2.143 -4.474,-3.534 -0.881,-0.695 -1.828,-1.442 -2.838,-2.239 -1.029,-0.759 -2.123,-1.566 -3.279,-2.419 -2.311,-1.704 -4.868,-3.591 -7.653,-5.645 -2.845,-1.937 -5.922,-4.032 -9.21,-6.27 -6.627,-4.366 -14.204,-9.07 -22.614,-13.851 -2.078,-1.253 -4.263,-2.376 -6.478,-3.548 -2.215,-1.172 -4.472,-2.366 -6.767,-3.58 -2.307,-1.18 -4.694,-2.271 -7.095,-3.438 -1.202,-0.577 -2.414,-1.158 -3.635,-1.744 -0.611,-0.291 -1.224,-0.584 -1.839,-0.878 -0.623,-0.269 -1.248,-0.538 -1.876,-0.809 -5.024,-2.153 -10.151,-4.473 -15.513,-6.431 -1.334,-0.513 -2.674,-1.028 -4.022,-1.547 -0.673,-0.261 -1.348,-0.523 -2.024,-0.785 -0.678,-0.259 -1.368,-0.478 -2.053,-0.719 -2.748,-0.945 -5.523,-1.899 -8.32,-2.861 -0.7,-0.237 -1.398,-0.49 -2.104,-0.715 -0.709,-0.212 -1.42,-0.425 -2.131,-0.638 -1.424,-0.425 -2.853,-0.853 -4.287,-1.282 -2.869,-0.855 -5.749,-1.761 -8.69,-2.456 -2.931,-0.748 -5.879,-1.5 -8.842,-2.255 -2.982,-0.641 -5.979,-1.285 -8.988,-1.932 -3.001,-0.701 -6.046,-1.175 -9.093,-1.704 -3.05,-0.499 -6.096,-1.121 -9.179,-1.459 -3.076,-0.399 -6.158,-0.798 -9.243,-1.197 -3.095,-0.273 -6.193,-0.546 -9.291,-0.818 -3.095,-0.334 -6.202,-0.418 -9.302,-0.58 -3.102,-0.139 -6.198,-0.351 -9.294,-0.313 -3.094,-0.015 -6.183,-0.031 -9.262,-0.046 -3.078,0.111 -6.147,0.223 -9.204,0.333 -3.059,0.05 -6.094,0.388 -9.12,0.6 -3.024,0.235 -6.038,0.41 -9.017,0.818 -2.983,0.353 -5.948,0.704 -8.892,1.052 -2.931,0.474 -5.842,0.944 -8.728,1.411 -1.441,0.251 -2.886,0.426 -4.306,0.737 -1.423,0.292 -2.839,0.584 -4.249,0.874 -1.41,0.29 -2.813,0.579 -4.209,0.866 -1.396,0.284 -2.789,0.546 -4.157,0.911 -2.746,0.679 -5.461,1.351 -8.144,2.014 -0.671,0.166 -1.34,0.332 -2.006,0.497 -0.666,0.172 -1.321,0.381 -1.979,0.568 -1.314,0.386 -2.619,0.768 -3.916,1.148 -10.398,2.934 -20.039,6.551 -28.899,10.008 -2.206,0.895 -4.338,1.866 -6.438,2.763 -2.094,0.918 -4.15,1.784 -6.137,2.678 -3.941,1.898 -7.679,3.698 -11.191,5.39 -3.459,1.844 -6.696,3.57 -9.689,5.166 -1.51,0.768 -2.896,1.654 -4.25,2.431 -1.348,0.793 -2.633,1.55 -3.853,2.267 -2.441,1.435 -4.63,2.696 -6.476,3.922 -1.863,1.191 -3.448,2.203 -4.733,3.025 -2.571,1.643 -3.942,2.52 -3.942,2.52 0,0 1.345,-0.932 3.865,-2.679 C -3.384,2.345 -1.828,1.267 0,0"
               style="fill:#000000;fill-opacity:1;fill-rule:nonzero;stroke:none"
               id="path130" />
          </g>
          <g
             id="g132"
             transform="translate(854.9173,635.9415)">
            <path
               d="m 0,0 c -28.377,-26.349 -62.321,-40.452 -96.663,-42.105 33.723,1.706 66.555,15.991 93.121,40.659 22.68,21.059 44.395,44.575 64.868,70.224 -54.302,-36.303 -114.656,-55.3 -176.687,-55.3 -48.383,0 -95.789,11.942 -138.992,34.799 18.711,-20.817 38.451,-39.771 58.966,-56.599 24.481,-20.082 52.798,-31.603 82.414,-33.631 -30.035,2.008 -59.749,13.565 -85.683,34.84 -29.708,24.369 -58.429,46.883 -85.291,81.018 26.862,-34.135 55.583,-76.866 85.291,-101.236 C -138.378,-76.777 -57.686,-73.782 0,-20.217 32.344,9.816 63.617,59.055 92.708,100.543 63.617,59.055 32.344,30.033 0,0 Z"
               style="fill:none;stroke:#231f20;stroke-width:8;stroke-linecap:butt;stroke-linejoin:miter;stroke-miterlimit:10;stroke-dasharray:none;stroke-opacity:1"
               id="path134" />
          </g>
          <g
             id="g136"
             transform="translate(577.6068,711.1489)">
            <path
               d="m 0,0 c -0.648,0.527 -1.52,0.46 -2.105,-0.162 l -4.641,-4.934 c -0.814,-0.866 -0.729,-2.401 0.174,-3.135 0.649,-0.527 1.52,-0.46 2.105,0.162 l 4.641,4.934 C 0.988,-2.269 0.903,-0.734 0,0"
               style="fill:#000000;fill-opacity:1;fill-rule:nonzero;stroke:none"
               id="path138" />
          </g>
          <g
             id="g140"
             transform="translate(574.7308,713.4861)">
            <path
               d="m 0,0 c -0.648,0.527 -1.52,0.46 -2.104,-0.162 l -4.642,-4.934 c -0.814,-0.866 -0.729,-2.401 0.174,-3.135 0.649,-0.527 1.52,-0.46 2.105,0.162 l 4.641,4.934 C 0.988,-2.268 0.903,-0.734 0,0"
               style="fill:#000000;fill-opacity:1;fill-rule:nonzero;stroke:none"
               id="path142" />
          </g>
          <g
             id="g144"
             transform="translate(571.8549,715.8234)">
            <path
               d="m 0,0 c -0.648,0.527 -1.52,0.46 -2.104,-0.162 l -4.642,-4.934 c -0.814,-0.866 -0.729,-2.401 0.174,-3.135 0.649,-0.527 1.52,-0.46 2.105,0.162 l 4.641,4.934 C 0.988,-2.268 0.903,-0.734 0,0"
               style="fill:#000000;fill-opacity:1;fill-rule:nonzero;stroke:none"
               id="path146" />
          </g>
          <g
             id="g148"
             transform="translate(568.9789,718.1606)">
            <path
               d="m 0,0 c -0.648,0.527 -1.52,0.46 -2.104,-0.162 l -4.642,-4.934 c -0.814,-0.866 -0.729,-2.401 0.174,-3.135 0.649,-0.527 1.52,-0.46 2.105,0.162 l 4.641,4.934 C 0.988,-2.268 0.903,-0.734 0,0"
               style="fill:#000000;fill-opacity:1;fill-rule:nonzero;stroke:none"
               id="path150" />
          </g>
          <g
             id="g152"
             transform="translate(561.13,717.2863)">
            <path
               d="M 0,0 -0.298,-0.317 Z M 4.973,3.212 C 4.325,3.739 3.453,3.672 2.869,3.05 L 1.582,1.682 2.271,2.414 C 3.085,3.28 3,4.815 2.097,5.549 1.449,6.076 0.577,6.009 -0.007,5.387 L -0.171,5.213 -85.705,149.752 -87.506,148.512 -1.753,3.531 -2.686,2.539 -102.176,95.834 -103.663,94.11 -4.236,0.891 -4.649,0.453 c -0.814,-0.866 -0.729,-2.401 0.174,-3.135 0.649,-0.527 1.52,-0.46 2.105,0.162 l 0.521,0.555 c -0.724,-0.888 -0.624,-2.344 0.25,-3.054 0.649,-0.527 1.52,-0.46 2.104,0.162 L 5.147,0.077 C 5.961,0.943 5.876,2.478 4.973,3.212"
               style="fill:#000000;fill-opacity:1;fill-rule:nonzero;stroke:none"
               id="path154" />
          </g>
          <g
             id="g156"
             transform="translate(937.356,733.6047)">
            <path
               d="m 0,0 c 0.615,0.479 1.441,0.418 1.996,-0.147 l 4.4,-4.483 C 7.169,-5.416 7.088,-6.81 6.232,-7.477 5.617,-7.956 4.791,-7.895 4.236,-7.33 l -4.401,4.482 C -0.937,-2.061 -0.856,-0.667 0,0"
               style="fill:#000000;fill-opacity:1;fill-rule:nonzero;stroke:none"
               id="path158" />
          </g>
          <g
             id="g160"
             transform="translate(940.0831,735.728)">
            <path
               d="M 0,0 C 0.615,0.479 1.441,0.418 1.995,-0.147 L 6.396,-4.63 C 7.168,-5.416 7.088,-6.81 6.232,-7.477 5.617,-7.956 4.791,-7.895 4.236,-7.33 l -4.401,4.482 C -0.937,-2.061 -0.856,-0.667 0,0"
               style="fill:#000000;fill-opacity:1;fill-rule:nonzero;stroke:none"
               id="path162" />
          </g>
          <g
             id="g164"
             transform="translate(942.81,737.8513)">
            <path
               d="M 0,0 C 0.615,0.479 1.441,0.418 1.995,-0.147 L 6.396,-4.63 C 7.169,-5.416 7.088,-6.81 6.232,-7.477 5.617,-7.956 4.791,-7.895 4.236,-7.33 l -4.401,4.482 C -0.937,-2.061 -0.856,-0.667 0,0"
               style="fill:#000000;fill-opacity:1;fill-rule:nonzero;stroke:none"
               id="path166" />
          </g>
          <g
             id="g168"
             transform="translate(945.537,739.9745)">
            <path
               d="M 0,0 C 0.615,0.479 1.441,0.418 1.995,-0.147 L 6.396,-4.63 C 7.169,-5.416 7.088,-6.81 6.232,-7.477 5.617,-7.956 4.791,-7.895 4.236,-7.33 l -4.401,4.482 C -0.937,-2.061 -0.856,-0.667 0,0"
               style="fill:#000000;fill-opacity:1;fill-rule:nonzero;stroke:none"
               id="path170" />
          </g>
          <g
             id="g172"
             transform="translate(953.2621,738.8923)">
            <path
               d="m 0,0 -0.283,0.288 z m -5.163,0.358 4.401,-4.483 c 0.555,-0.565 1.38,-0.626 1.995,-0.147 0.829,0.646 0.924,1.968 0.229,2.766 0.008,0.009 0.503,-0.495 0.503,-0.495 0.555,-0.565 1.38,-0.626 1.996,-0.147 0.856,0.666 0.936,2.06 0.164,2.847 L 3.734,1.098 94.717,105.859 93.307,107.425 2.264,2.595 1.379,3.496 86.644,142.64 84.936,143.767 -0.121,5.024 -0.276,5.182 C -0.83,5.747 -1.656,5.808 -2.271,5.329 -3.128,4.662 -3.208,3.268 -2.436,2.481 l 0.653,-0.665 -1.22,1.243 C -3.557,3.624 -4.383,3.684 -4.998,3.206 -5.855,2.539 -5.935,1.145 -5.163,0.358"
               style="fill:#000000;fill-opacity:1;fill-rule:nonzero;stroke:none"
               id="path174" />
          </g>
          <g
             id="g176"
             transform="translate(512.5117,999.2265)">
            <path
               d="M 0,0 C -57.092,-175.752 -57.092,-377.131 0,-552.884 H -56.724 C -94.908,-377.131 -76,-175.752 0,0"
               style="fill:#000000;fill-opacity:1;fill-rule:nonzero;stroke:none"
               id="path178" />
          </g>
          <g
             id="g180"
             transform="translate(549.1005,816.2175)">
            <path
               d="m 0,0 -8.634,2.816 9.448,2.592 c 3.531,24.446 6.321,58.277 1.811,90.043 -0.337,2.375 -0.714,4.698 -1.119,6.978 l -19.947,6.505 17.594,4.826 c -11.177,46.736 -35.224,70.122 -35.224,70.122 0,0 -2.591,-10.219 -5.228,-26.2 l 10.919,-3.532 -11.989,-3.288 c -3.661,-24.577 -6.725,-59.367 -2.095,-91.982 0.296,-2.086 0.623,-4.131 0.972,-6.144 l 21.352,-6.908 -18.871,-5.176 c 11.168,-46.791 35.243,-70.203 35.243,-70.203 0,0 2.958,11.66 5.768,29.551"
               style="fill:#000000;fill-opacity:1;fill-rule:nonzero;stroke:none"
               id="path182" />
          </g>
          <g
             id="g184"
             transform="translate(592.4561,1083.8352)">
            <path
               d="m 0,0 c -2.229,-0.764 -4.416,-1.633 -6.564,-2.588 l 0.969,-22.186 -6.599,19.427 c -42.297,-22.581 -67.263,-78.781 -67.231,-78.577 -0.027,-0.168 22.247,8.427 54.51,19.968 l -6.333,16.044 17.301,-12.146 c 7.399,2.613 15.197,5.333 23.277,8.103 6.765,2.375 13.357,4.657 19.678,6.82 l 2.803,27.921 4.564,-25.411 c 36.327,12.321 62.207,20.287 62.121,20.428 C 98.602,-22.37 49.584,17.409 0,0"
               style="fill:#000000;fill-opacity:1;fill-rule:nonzero;stroke:none"
               id="path186" />
          </g>
          <g
             id="g188"
             transform="translate(608.7218,960.6661)">
            <path
               d="m 0,0 c -1.763,2.044 -3.562,3.978 -5.388,5.818 l -12.287,-14.225 7.353,18.897 c -38.141,33.995 -85.506,28.67 -85.369,28.755 -0.113,-0.07 18.062,-19.925 43.86,-49.222 l 5.55,16.596 3.206,-26.57 c 5.897,-6.739 12.093,-13.862 18.484,-21.27 5.383,-6.17 10.61,-12.201 15.608,-17.999 L 8.863,-45.822 -3.165,-65.984 C 25.493,-99.37 45.439,-123.635 45.47,-123.456 45.432,-123.678 39.459,-45.22 0,0"
               style="fill:#000000;fill-opacity:1;fill-rule:nonzero;stroke:none"
               id="path190" />
          </g>
          <g
             id="g192"
             transform="translate(433.6056,1083.8352)">
            <path
               d="m 0,0 c 2.229,-0.764 4.416,-1.633 6.564,-2.588 l -0.969,-22.186 6.599,19.427 c 42.297,-22.581 67.263,-78.781 67.231,-78.577 0.027,-0.168 -22.247,8.427 -54.51,19.968 l 6.333,16.044 -17.301,-12.146 c -7.399,2.613 -15.197,5.333 -23.277,8.103 -6.765,2.375 -13.357,4.657 -19.678,6.82 l -2.803,27.921 -4.564,-25.411 c -36.327,12.321 -62.207,20.287 -62.121,20.428 C -98.602,-22.37 -49.584,17.409 0,0"
               style="fill:#000000;fill-opacity:1;fill-rule:nonzero;stroke:none"
               id="path194" />
          </g>
          <g
             id="g196"
             transform="translate(417.3398,960.6661)">
            <path
               d="M 0,0 C 1.763,2.044 3.562,3.978 5.388,5.818 L 17.675,-8.407 10.322,10.49 C 48.463,44.485 95.828,39.16 95.691,39.245 95.804,39.175 77.629,19.32 51.831,-9.977 l -5.55,16.596 -3.206,-26.57 C 37.178,-26.69 30.982,-33.813 24.591,-41.221 19.208,-47.391 13.981,-53.422 8.983,-59.22 L -8.863,-45.822 3.165,-65.984 C -25.493,-99.37 -45.439,-123.635 -45.47,-123.456 -45.432,-123.678 -39.459,-45.22 0,0"
               style="fill:#000000;fill-opacity:1;fill-rule:nonzero;stroke:none"
               id="path198" />
          </g>
          <g
             id="g200"
             transform="translate(984.9459,1039.6685)">
            <path
               d="m 0,0 c 72.711,-184.725 85.631,-400.598 35.471,-592.676 l 61.041,3.653 C 126.324,-398.162 93.058,-183.507 0,0"
               style="fill:#000000;fill-opacity:1;fill-rule:nonzero;stroke:none"
               id="path202" />
          </g>
          <g
             id="g204"
             transform="translate(979.7289,837.6317)">
            <path
               d="M 0,0 8.594,5.128 -1.842,5.5 c -8.169,24.899 -17.264,59.879 -18.284,94.507 -0.076,2.59 -0.101,5.134 -0.088,7.64 l 19.853,11.846 -19.432,0.692 c 3.289,52.082 24.396,82.754 24.396,82.754 0,0 4.592,-10.129 10.278,-26.323 L 4.009,170.162 17.25,169.69 c 8.33,-25.004 17.888,-60.929 18.936,-96.482 0.067,-2.274 0.094,-4.512 0.092,-6.722 L 15.015,53.864 35.859,53.122 C 32.589,0.985 11.457,-29.724 11.457,-29.724 11.457,-29.724 6.217,-18.165 0,0"
               style="fill:#000000;fill-opacity:1;fill-rule:nonzero;stroke:none"
               id="path206" />
          </g>
          <g
             id="g208"
             transform="translate(893.4909,1125.2183)">
            <path
               d="m 0,0 c 2.447,-0.675 4.856,-1.466 7.229,-2.351 l 0.381,-23.846 5.855,21.251 c 46.963,-21.483 77.435,-80.12 77.387,-79.903 0.04,-0.179 -24.48,7.601 -59.938,17.894 l 5.785,17.607 -17.838,-14.134 c -8.129,2.325 -16.696,4.738 -25.567,7.187 -7.433,2.11 -14.673,4.131 -21.613,6.043 l -4.808,29.75 -3.28,-27.534 c -39.882,10.869 -68.242,17.742 -68.158,17.898 C -104.669,-30.331 -54.473,15.468 0,0"
               style="fill:#000000;fill-opacity:1;fill-rule:nonzero;stroke:none"
               id="path210" />
          </g>
          <g
             id="g212"
             transform="translate(883.8898,992.1367)">
            <path
               d="M 0,0 C 1.766,2.304 3.578,4.494 5.424,6.584 L 19.559,-7.874 10.434,11.91 C 49.296,50.808 100.607,48.15 100.453,48.232 100.58,48.165 82.296,25.711 56.414,-7.357 L 49.378,10.075 47.632,-18.613 C 41.719,-26.217 35.509,-34.251 29.107,-42.604 23.709,-49.565 18.472,-56.367 13.466,-62.903 L -6.597,-49.691 7.639,-70.529 C -21.057,-108.164 -40.964,-135.46 -41.009,-135.27 -40.954,-135.506 -39.56,-51.016 0,0"
               style="fill:#000000;fill-opacity:1;fill-rule:nonzero;stroke:none"
               id="path214" />
          </g>
          <g
             id="g216"
             transform="translate(1064.427,1135.4487)">
            <path
               d="m 0,0 c -2.349,-0.963 -4.647,-2.035 -6.897,-3.197 l 2.466,-23.721 -8.348,20.401 c -44.066,-26.931 -67.326,-88.784 -67.305,-88.563 -0.018,-0.182 23.4,10.467 57.377,24.916 l -7.845,16.791 19.397,-11.906 c 7.794,3.278 16.011,6.696 24.528,10.185 7.128,2.982 14.075,5.852 20.737,8.578 l 1.226,30.112 6.541,-26.947 c 38.3,15.548 65.638,25.755 65.536,25.9 C 107.539,-17.63 52.24,21.855 0,0"
               style="fill:#000000;fill-opacity:1;fill-rule:nonzero;stroke:none"
               id="path218" />
          </g>
          <g
             id="g220"
             transform="translate(1089.8324,1004.4623)">
            <path
               d="m 0,0 c -2.028,2.077 -4.088,4.035 -6.171,5.89 l -12.309,-16.041 6.7,20.731 c -43.224,33.985 -93.852,25.227 -93.709,25.327 -0.118,-0.082 20.714,-20.196 50.355,-49.94 l 4.907,18.147 5.155,-28.275 c 6.778,-6.844 13.902,-14.081 21.254,-21.61 6.189,-6.268 12.201,-12.397 17.95,-18.289 L 12.477,-48.55 0.827,-70.937 C 33.808,-104.88 56.828,-129.607 56.85,-129.413 56.823,-129.654 45.362,-45.934 0,0"
               style="fill:#000000;fill-opacity:1;fill-rule:nonzero;stroke:none"
               id="path222" />
          </g>
        </g>
      </g>
      <text
         transform="matrix(0.8336998,-0.49122579,-0.51322259,-0.87103227,499.2012,347.3555)"
         style="font-variant:normal;font-weight:normal;font-stretch:normal;font-size:140.457px;font-family:KonTikiJF;-inkscape-font-specification:KonTikiJF-Aloha;writing-mode:lr-tb;fill:#231f20;fill-opacity:1;fill-rule:nonzero;stroke:none"
         id="text226"><tspan
           x="0"
           y="0"
           id="tspan224">R</tspan></text>
      <text
         transform="matrix(0.89544357,-0.35321793,-0.36903497,-0.93554107,569.7666,307.2695)"
         style="font-variant:normal;font-weight:normal;font-stretch:normal;font-size:141.196px;font-family:KonTikiJF;-inkscape-font-specification:KonTikiJF-Aloha;writing-mode:lr-tb;fill:#231f20;fill-opacity:1;fill-rule:nonzero;stroke:none"
         id="text230"><tspan
           x="0"
           y="0"
           id="tspan228">e</tspan></text>
      <text
         transform="matrix(0.93379508,-0.21951003,-0.22933938,-0.97561024,626.9307,284.8662)"
         style="font-variant:normal;font-weight:normal;font-stretch:normal;font-size:141.688px;font-family:KonTikiJF;-inkscape-font-specification:KonTikiJF-Aloha;writing-mode:lr-tb;fill:#231f20;fill-opacity:1;fill-rule:nonzero;stroke:none"
         id="text234"><tspan
           x="0"
           y="0"
           id="tspan232">c</tspan></text>
      <text
         transform="matrix(0.95451231,-0.07405663,-0.07737296,-0.99725404,695.917,269.2305)"
         style="font-variant:normal;font-weight:normal;font-stretch:normal;font-size:141.964px;font-family:KonTikiJF;-inkscape-font-specification:KonTikiJF-Aloha;writing-mode:lr-tb;fill:#231f20;fill-opacity:1;fill-rule:nonzero;stroke:none"
         id="text238"><tspan
           x="0"
           y="0"
           id="tspan236">h</tspan></text>
      <text
         transform="matrix(0.95413365,0.07919315,0.08273924,-0.99685929,765.8437,264.0107)"
         style="font-variant:normal;font-weight:normal;font-stretch:normal;font-size:141.959px;font-family:KonTikiJF;-inkscape-font-specification:KonTikiJF-Aloha;writing-mode:lr-tb;fill:#231f20;fill-opacity:1;fill-rule:nonzero;stroke:none"
         id="text242"><tspan
           x="0"
           y="0"
           id="tspan240">a</tspan></text>
      <text
         transform="matrix(0.92990337,0.2368603,0.24746631,-0.97154372,844.833,271.4248)"
         style="font-variant:normal;font-weight:normal;font-stretch:normal;font-size:141.637px;font-family:KonTikiJF;-inkscape-font-specification:KonTikiJF-Aloha;writing-mode:lr-tb;fill:#231f20;fill-opacity:1;fill-rule:nonzero;stroke:none"
         id="text246"><tspan
           x="0"
           y="0"
           id="tspan244">r</tspan></text>
      <text
         transform="matrix(0.88446111,0.38223042,0.39934587,-0.92406705,915.1484,289.9561)"
         style="font-variant:normal;font-weight:normal;font-stretch:normal;font-size:141.06px;font-family:KonTikiJF;-inkscape-font-specification:KonTikiJF-Aloha;writing-mode:lr-tb;fill:#231f20;fill-opacity:1;fill-rule:nonzero;stroke:none"
         id="text250"><tspan
           x="0"
           y="0"
           id="tspan248">g</tspan></text>
      <text
         transform="matrix(0.82424911,0.50833664,0.53109984,-0.86115844,979.874,318.8057)"
         style="font-variant:normal;font-weight:normal;font-stretch:normal;font-size:140.349px;font-family:KonTikiJF;-inkscape-font-specification:KonTikiJF-Aloha;writing-mode:lr-tb;fill:#231f20;fill-opacity:1;fill-rule:nonzero;stroke:none"
         id="text254"><tspan
           x="0"
           y="0"
           id="tspan252">e</tspan></text>
      <g
         id="g256">
        <g
           id="g258"
           clip-path="url(#clipPath262)">
          <g
             id="g264"
             transform="translate(670.8575,739.239)">
            <path
               d="m 0,0 c -5.024,2.239 -10.511,-0.215 -12.193,-5.452 l -9.989,-31.104 c -1.682,-5.237 1.053,-11.353 6.077,-13.592 l 2.845,-1.267 c 5.024,-2.238 10.511,0.215 12.192,5.452 l 9.989,31.104 c 1.682,5.237 -1.052,11.353 -6.077,13.592 z"
               style="fill:#ffffff;fill-opacity:1;fill-rule:nonzero;stroke:none"
               id="path266" />
          </g>
          <g
             id="g268"
             transform="translate(670.8575,739.239)">
            <path
               d="m 0,0 c -5.024,2.239 -10.511,-0.215 -12.193,-5.452 l -9.989,-31.104 c -1.682,-5.237 1.053,-11.353 6.077,-13.592 l 2.845,-1.267 c 5.024,-2.238 10.511,0.215 12.192,5.452 l 9.989,31.104 c 1.682,5.237 -1.052,11.353 -6.077,13.592 z"
               style="fill:none;stroke:#231f20;stroke-width:9;stroke-linecap:butt;stroke-linejoin:miter;stroke-miterlimit:10;stroke-dasharray:none;stroke-opacity:1"
               id="path270" />
          </g>
          <g
             id="g272"
             transform="translate(811.9812,699.4124)">
            <path
               d="m 0,0 c 5.024,-2.239 7.759,-8.355 6.077,-13.592 l -22.941,-71.434 c -1.681,-5.237 -7.168,-7.69 -12.193,-5.451 l -116.112,51.733 c -5.024,2.238 -7.759,8.355 -6.077,13.592 l 22.94,71.433 c 1.682,5.237 7.169,7.691 12.193,5.452 z"
               style="fill:#ffffff;fill-opacity:1;fill-rule:nonzero;stroke:none"
               id="path274" />
          </g>
          <g
             id="g276"
             transform="translate(811.9812,699.4124)">
            <path
               d="m 0,0 c 5.024,-2.239 7.759,-8.355 6.077,-13.592 l -22.941,-71.434 c -1.681,-5.237 -7.168,-7.69 -12.193,-5.451 l -116.112,51.733 c -5.024,2.238 -7.759,8.355 -6.077,13.592 l 22.94,71.433 c 1.682,5.237 7.169,7.691 12.193,5.452 z"
               style="fill:none;stroke:#231f20;stroke-width:9;stroke-linecap:butt;stroke-linejoin:miter;stroke-miterlimit:10;stroke-dasharray:none;stroke-opacity:1"
               id="path278" />
          </g>
          <g
             id="g280"
             transform="translate(800.2455,694.9273)">
            <path
               d="M 0,0 C 5.024,-2.239 7.759,-8.355 6.077,-13.592 L -11.405,-68.03 c -1.682,-5.237 -7.169,-7.69 -12.193,-5.452 l -2.603,1.16 c -5.024,2.239 -7.759,8.355 -6.077,13.592 l 17.482,54.438 c 1.682,5.237 7.169,7.69 12.193,5.452 z"
               style="fill:#000000;fill-opacity:1;fill-rule:nonzero;stroke:none"
               id="path282" />
          </g>
          <g
             id="g284"
             transform="translate(800.2455,694.9273)">
            <path
               d="M 0,0 C 5.024,-2.239 7.759,-8.355 6.077,-13.592 L -11.405,-68.03 c -1.682,-5.237 -7.169,-7.69 -12.193,-5.452 l -2.603,1.16 c -5.024,2.239 -7.759,8.355 -6.077,13.592 l 17.482,54.438 c 1.682,5.237 7.169,7.69 12.193,5.452 z"
               style="fill:none;stroke:#231f20;stroke-width:4;stroke-linecap:butt;stroke-linejoin:miter;stroke-miterlimit:10;stroke-dasharray:none;stroke-opacity:1"
               id="path286" />
          </g>
          <g
             id="g288"
             transform="translate(769.3121,708.7095)">
            <path
               d="M 0,0 C 5.024,-2.239 7.759,-8.355 6.077,-13.592 L -11.405,-68.03 c -1.682,-5.237 -7.169,-7.69 -12.193,-5.452 l -2.603,1.16 c -5.024,2.239 -7.759,8.355 -6.077,13.592 l 17.482,54.438 c 1.682,5.237 7.169,7.69 12.193,5.452 z"
               style="fill:#000000;fill-opacity:1;fill-rule:nonzero;stroke:none"
               id="path290" />
          </g>
          <g
             id="g292"
             transform="translate(769.3121,708.7095)">
            <path
               d="M 0,0 C 5.024,-2.239 7.759,-8.355 6.077,-13.592 L -11.405,-68.03 c -1.682,-5.237 -7.169,-7.69 -12.193,-5.452 l -2.603,1.16 c -5.024,2.239 -7.759,8.355 -6.077,13.592 l 17.482,54.438 c 1.682,5.237 7.169,7.69 12.193,5.452 z"
               style="fill:none;stroke:#231f20;stroke-width:4;stroke-linecap:butt;stroke-linejoin:miter;stroke-miterlimit:10;stroke-dasharray:none;stroke-opacity:1"
               id="path294" />
          </g>
          <g
             id="g296"
             transform="translate(738.3787,722.4916)">
            <path
               d="M 0,0 C 5.024,-2.239 7.759,-8.355 6.077,-13.592 L -11.405,-68.03 c -1.682,-5.237 -7.169,-7.69 -12.193,-5.451 l -2.603,1.159 c -5.024,2.239 -7.759,8.355 -6.077,13.592 l 17.482,54.438 c 1.682,5.237 7.169,7.69 12.193,5.452 z"
               style="fill:#000000;fill-opacity:1;fill-rule:nonzero;stroke:none"
               id="path298" />
          </g>
          <g
             id="g300"
             transform="translate(738.3787,722.4916)">
            <path
               d="M 0,0 C 5.024,-2.239 7.759,-8.355 6.077,-13.592 L -11.405,-68.03 c -1.682,-5.237 -7.169,-7.69 -12.193,-5.451 l -2.603,1.159 c -5.024,2.239 -7.759,8.355 -6.077,13.592 l 17.482,54.438 c 1.682,5.237 7.169,7.69 12.193,5.452 z"
               style="fill:none;stroke:#231f20;stroke-width:4;stroke-linecap:butt;stroke-linejoin:miter;stroke-miterlimit:10;stroke-dasharray:none;stroke-opacity:1"
               id="path302" />
          </g>
          <g
             id="g304"
             transform="translate(707.0526,736.3179)">
            <path
               d="M 0,0 C 5.024,-2.239 7.759,-8.355 6.077,-13.592 L -11.405,-68.03 c -1.682,-5.237 -7.169,-7.69 -12.193,-5.451 l -2.603,1.159 c -5.024,2.239 -7.759,8.355 -6.077,13.592 l 17.482,54.438 c 1.682,5.237 7.169,7.69 12.193,5.452 z"
               style="fill:#000000;fill-opacity:1;fill-rule:nonzero;stroke:none"
               id="path306" />
          </g>
          <g
             id="g308"
             transform="translate(707.0526,736.3179)">
            <path
               d="M 0,0 C 5.024,-2.239 7.759,-8.355 6.077,-13.592 L -11.405,-68.03 c -1.682,-5.237 -7.169,-7.69 -12.193,-5.451 l -2.603,1.159 c -5.024,2.239 -7.759,8.355 -6.077,13.592 l 17.482,54.438 c 1.682,5.237 7.169,7.69 12.193,5.452 z"
               style="fill:none;stroke:#231f20;stroke-width:4;stroke-linecap:butt;stroke-linejoin:miter;stroke-miterlimit:10;stroke-dasharray:none;stroke-opacity:1"
               id="path310" />
          </g>
        </g>
      </g>
    </g>
  </g>
</svg>
