M48
; DRILL file {KiCad (6.0.7)} date Tue Oct  4 19:13:41 2022
; FORMAT={-:-/ absolute / inch / decimal}
; #@! TF.CreationDate,2022-10-04T19:13:41-05:00
; #@! TF.GenerationSoftware,Kicad,Pcbnew,(6.0.7)
; #@! TF.FileFunction,Plated,1,2,PTH
FMAT,2
INCH
; #@! TA.AperFunction,Plated,PTH,ViaDrill
T1C0.0157
; #@! TA.AperFunction,Plated,PTH,ComponentDrill
T2C0.0217
; #@! TA.AperFunction,Plated,PTH,ComponentDrill
T3C0.0335
; #@! TA.AperFunction,Plated,PTH,ComponentDrill
T4C0.0394
; #@! TA.AperFunction,Plated,PTH,ComponentDrill
T5C0.0400
; #@! TA.AperFunction,Plated,PTH,ComponentDrill
T6C0.1772
%
G90
G05
T1
X4.335Y-3.539
X4.518Y-3.537
X4.58Y-4.418
X4.639Y-4.38
X4.705Y-3.427
X4.727Y-3.464
X5.23Y-2.826
X5.383Y-4.198
X5.452Y-4.195
X5.551Y-3.767
X6.776Y-4.027
X6.895Y-4.029
X6.9498Y-4.6765
X7.145Y-4.714
X7.192Y-4.418
X7.223Y-4.648
X7.2415Y-3.6475
X7.254Y-3.696
T4
X4.7004Y-4.647
X4.8004Y-4.647
X4.9004Y-4.647
X5.0004Y-4.647
X7.351Y-4.7088
X7.351Y-4.8088
X7.48Y-3.415
X7.58Y-3.415
T5
X5.2429Y-2.9433
X5.2429Y-3.0433
X5.3429Y-2.9433
X5.3429Y-3.0433
X5.4429Y-2.9433
X5.4429Y-3.0433
T6
X5.931Y-2.156
T2
G00X7.8028Y-3.8092
M15
G01X7.7773Y-3.8092
M16
G05
G00X7.8028Y-4.1144
M15
G01X7.7773Y-4.1144
M16
G05
T3
G00X7.6513Y-3.8151
M15
G01X7.6296Y-3.8151
M16
G05
G00X7.6513Y-4.1085
M15
G01X7.6296Y-4.1085
M16
G05
T0
M30
