%TF.GenerationSoftware,KiCad,Pcbnew,(6.0.7)*%
%TF.CreationDate,2022-10-04T19:13:39-05:00*%
%TF.ProjectId,BsidesCHS-2022-Badge,42736964-6573-4434-9853-2d323032322d,0*%
%TF.SameCoordinates,Original*%
%TF.FileFunction,Legend,Bot*%
%TF.FilePolarity,Positive*%
%FSLAX46Y46*%
G04 Gerber Fmt 4.6, Leading zero omitted, Abs format (unit mm)*
G04 Created by KiCad (PCBNEW (6.0.7)) date 2022-10-04 19:13:39*
%MOMM*%
%LPD*%
G01*
G04 APERTURE LIST*
%ADD10C,0.150000*%
%ADD11C,0.010000*%
%ADD12C,0.500000*%
%ADD13C,0.120000*%
%ADD14C,0.210000*%
%ADD15C,0.100000*%
%ADD16C,0.310000*%
G04 APERTURE END LIST*
D10*
%TO.C,X1*%
X140078861Y-81062461D02*
X139983623Y-81110080D01*
X139793147Y-81110080D01*
X139697909Y-81062461D01*
X139650290Y-80967223D01*
X139650290Y-80919604D01*
X139697909Y-80824366D01*
X139793147Y-80776747D01*
X139936004Y-80776747D01*
X140031242Y-80729128D01*
X140078861Y-80633890D01*
X140078861Y-80586271D01*
X140031242Y-80491033D01*
X139936004Y-80443414D01*
X139793147Y-80443414D01*
X139697909Y-80491033D01*
X138793147Y-81110080D02*
X138793147Y-80586271D01*
X138840766Y-80491033D01*
X138936004Y-80443414D01*
X139126480Y-80443414D01*
X139221719Y-80491033D01*
X138793147Y-81062461D02*
X138888385Y-81110080D01*
X139126480Y-81110080D01*
X139221719Y-81062461D01*
X139269338Y-80967223D01*
X139269338Y-80871985D01*
X139221719Y-80776747D01*
X139126480Y-80729128D01*
X138888385Y-80729128D01*
X138793147Y-80681509D01*
X138174100Y-81110080D02*
X138269338Y-81062461D01*
X138316957Y-81014842D01*
X138364576Y-80919604D01*
X138364576Y-80633890D01*
X138316957Y-80538652D01*
X138269338Y-80491033D01*
X138174100Y-80443414D01*
X138031242Y-80443414D01*
X137936004Y-80491033D01*
X137888385Y-80538652D01*
X137840766Y-80633890D01*
X137840766Y-80919604D01*
X137888385Y-81014842D01*
X137936004Y-81062461D01*
X138031242Y-81110080D01*
X138174100Y-81110080D01*
X137650290Y-81205319D02*
X136888385Y-81205319D01*
X136745528Y-80443414D02*
X136507433Y-81110080D01*
X136269338Y-80443414D01*
X135364576Y-81110080D02*
X135936004Y-81110080D01*
X135650290Y-81110080D02*
X135650290Y-80110080D01*
X135745528Y-80252938D01*
X135840766Y-80348176D01*
X135936004Y-80395795D01*
X134507433Y-80110080D02*
X134697909Y-80110080D01*
X134793147Y-80157700D01*
X134840766Y-80205319D01*
X134936004Y-80348176D01*
X134983623Y-80538652D01*
X134983623Y-80919604D01*
X134936004Y-81014842D01*
X134888385Y-81062461D01*
X134793147Y-81110080D01*
X134602671Y-81110080D01*
X134507433Y-81062461D01*
X134459814Y-81014842D01*
X134412195Y-80919604D01*
X134412195Y-80681509D01*
X134459814Y-80586271D01*
X134507433Y-80538652D01*
X134602671Y-80491033D01*
X134793147Y-80491033D01*
X134888385Y-80538652D01*
X134936004Y-80586271D01*
X134983623Y-80681509D01*
X133936004Y-81110080D02*
X133745528Y-81110080D01*
X133650290Y-81062461D01*
X133602671Y-81014842D01*
X133507433Y-80871985D01*
X133459814Y-80681509D01*
X133459814Y-80300557D01*
X133507433Y-80205319D01*
X133555052Y-80157700D01*
X133650290Y-80110080D01*
X133840766Y-80110080D01*
X133936004Y-80157700D01*
X133983623Y-80205319D01*
X134031242Y-80300557D01*
X134031242Y-80538652D01*
X133983623Y-80633890D01*
X133936004Y-80681509D01*
X133840766Y-80729128D01*
X133650290Y-80729128D01*
X133555052Y-80681509D01*
X133507433Y-80633890D01*
X133459814Y-80538652D01*
X133031242Y-81110080D02*
X133031242Y-80110080D01*
X133031242Y-80491033D02*
X132936004Y-80443414D01*
X132745528Y-80443414D01*
X132650290Y-80491033D01*
X132602671Y-80538652D01*
X132555052Y-80633890D01*
X132555052Y-80919604D01*
X132602671Y-81014842D01*
X132650290Y-81062461D01*
X132745528Y-81110080D01*
X132936004Y-81110080D01*
X133031242Y-81062461D01*
X132126480Y-81110080D02*
X132126480Y-80443414D01*
X132126480Y-80110080D02*
X132174100Y-80157700D01*
X132126480Y-80205319D01*
X132078861Y-80157700D01*
X132126480Y-80110080D01*
X132126480Y-80205319D01*
X131697909Y-81062461D02*
X131602671Y-81110080D01*
X131412195Y-81110080D01*
X131316957Y-81062461D01*
X131269338Y-80967223D01*
X131269338Y-80919604D01*
X131316957Y-80824366D01*
X131412195Y-80776747D01*
X131555052Y-80776747D01*
X131650290Y-80729128D01*
X131697909Y-80633890D01*
X131697909Y-80586271D01*
X131650290Y-80491033D01*
X131555052Y-80443414D01*
X131412195Y-80443414D01*
X131316957Y-80491033D01*
X139727642Y-78377700D02*
X139799071Y-78341985D01*
X139906214Y-78341985D01*
X140013357Y-78377700D01*
X140084785Y-78449128D01*
X140120500Y-78520557D01*
X140156214Y-78663414D01*
X140156214Y-78770557D01*
X140120500Y-78913414D01*
X140084785Y-78984842D01*
X140013357Y-79056271D01*
X139906214Y-79091985D01*
X139834785Y-79091985D01*
X139727642Y-79056271D01*
X139691928Y-79020557D01*
X139691928Y-78770557D01*
X139834785Y-78770557D01*
X139370500Y-79091985D02*
X139370500Y-78341985D01*
X139084785Y-78341985D01*
X139013357Y-78377700D01*
X138977642Y-78413414D01*
X138941928Y-78484842D01*
X138941928Y-78591985D01*
X138977642Y-78663414D01*
X139013357Y-78699128D01*
X139084785Y-78734842D01*
X139370500Y-78734842D01*
X138620500Y-79091985D02*
X138620500Y-78341985D01*
X138120500Y-78341985D02*
X137977642Y-78341985D01*
X137906214Y-78377700D01*
X137834785Y-78449128D01*
X137799071Y-78591985D01*
X137799071Y-78841985D01*
X137834785Y-78984842D01*
X137906214Y-79056271D01*
X137977642Y-79091985D01*
X138120500Y-79091985D01*
X138191928Y-79056271D01*
X138263357Y-78984842D01*
X138299071Y-78841985D01*
X138299071Y-78591985D01*
X138263357Y-78449128D01*
X138191928Y-78377700D01*
X138120500Y-78341985D01*
X137513357Y-78413414D02*
X137477642Y-78377700D01*
X137406214Y-78341985D01*
X137227642Y-78341985D01*
X137156214Y-78377700D01*
X137120500Y-78413414D01*
X137084785Y-78484842D01*
X137084785Y-78556271D01*
X137120500Y-78663414D01*
X137549071Y-79091985D01*
X137084785Y-79091985D01*
X133375328Y-78403100D02*
X133446757Y-78367385D01*
X133553900Y-78367385D01*
X133661042Y-78403100D01*
X133732471Y-78474528D01*
X133768185Y-78545957D01*
X133803900Y-78688814D01*
X133803900Y-78795957D01*
X133768185Y-78938814D01*
X133732471Y-79010242D01*
X133661042Y-79081671D01*
X133553900Y-79117385D01*
X133482471Y-79117385D01*
X133375328Y-79081671D01*
X133339614Y-79045957D01*
X133339614Y-78795957D01*
X133482471Y-78795957D01*
X133018185Y-79117385D02*
X133018185Y-78367385D01*
X132589614Y-79117385D01*
X132589614Y-78367385D01*
X132232471Y-79117385D02*
X132232471Y-78367385D01*
X132053900Y-78367385D01*
X131946757Y-78403100D01*
X131875328Y-78474528D01*
X131839614Y-78545957D01*
X131803900Y-78688814D01*
X131803900Y-78795957D01*
X131839614Y-78938814D01*
X131875328Y-79010242D01*
X131946757Y-79081671D01*
X132053900Y-79117385D01*
X132232471Y-79117385D01*
X136185957Y-79081671D02*
X136078814Y-79117385D01*
X135900242Y-79117385D01*
X135828814Y-79081671D01*
X135793100Y-79045957D01*
X135757385Y-78974528D01*
X135757385Y-78903100D01*
X135793100Y-78831671D01*
X135828814Y-78795957D01*
X135900242Y-78760242D01*
X136043100Y-78724528D01*
X136114528Y-78688814D01*
X136150242Y-78653100D01*
X136185957Y-78581671D01*
X136185957Y-78510242D01*
X136150242Y-78438814D01*
X136114528Y-78403100D01*
X136043100Y-78367385D01*
X135864528Y-78367385D01*
X135757385Y-78403100D01*
X135007385Y-79045957D02*
X135043100Y-79081671D01*
X135150242Y-79117385D01*
X135221671Y-79117385D01*
X135328814Y-79081671D01*
X135400242Y-79010242D01*
X135435957Y-78938814D01*
X135471671Y-78795957D01*
X135471671Y-78688814D01*
X135435957Y-78545957D01*
X135400242Y-78474528D01*
X135328814Y-78403100D01*
X135221671Y-78367385D01*
X135150242Y-78367385D01*
X135043100Y-78403100D01*
X135007385Y-78438814D01*
X134328814Y-79117385D02*
X134685957Y-79117385D01*
X134685957Y-78367385D01*
X139600642Y-72738900D02*
X139672071Y-72703185D01*
X139779214Y-72703185D01*
X139886357Y-72738900D01*
X139957785Y-72810328D01*
X139993500Y-72881757D01*
X140029214Y-73024614D01*
X140029214Y-73131757D01*
X139993500Y-73274614D01*
X139957785Y-73346042D01*
X139886357Y-73417471D01*
X139779214Y-73453185D01*
X139707785Y-73453185D01*
X139600642Y-73417471D01*
X139564928Y-73381757D01*
X139564928Y-73131757D01*
X139707785Y-73131757D01*
X139243500Y-73453185D02*
X139243500Y-72703185D01*
X138957785Y-72703185D01*
X138886357Y-72738900D01*
X138850642Y-72774614D01*
X138814928Y-72846042D01*
X138814928Y-72953185D01*
X138850642Y-73024614D01*
X138886357Y-73060328D01*
X138957785Y-73096042D01*
X139243500Y-73096042D01*
X138493500Y-73453185D02*
X138493500Y-72703185D01*
X137993500Y-72703185D02*
X137850642Y-72703185D01*
X137779214Y-72738900D01*
X137707785Y-72810328D01*
X137672071Y-72953185D01*
X137672071Y-73203185D01*
X137707785Y-73346042D01*
X137779214Y-73417471D01*
X137850642Y-73453185D01*
X137993500Y-73453185D01*
X138064928Y-73417471D01*
X138136357Y-73346042D01*
X138172071Y-73203185D01*
X138172071Y-72953185D01*
X138136357Y-72810328D01*
X138064928Y-72738900D01*
X137993500Y-72703185D01*
X136957785Y-73453185D02*
X137386357Y-73453185D01*
X137172071Y-73453185D02*
X137172071Y-72703185D01*
X137243500Y-72810328D01*
X137314928Y-72881757D01*
X137386357Y-72917471D01*
X136457814Y-73417471D02*
X136350671Y-73453185D01*
X136172100Y-73453185D01*
X136100671Y-73417471D01*
X136064957Y-73381757D01*
X136029242Y-73310328D01*
X136029242Y-73238900D01*
X136064957Y-73167471D01*
X136100671Y-73131757D01*
X136172100Y-73096042D01*
X136314957Y-73060328D01*
X136386385Y-73024614D01*
X136422100Y-72988900D01*
X136457814Y-72917471D01*
X136457814Y-72846042D01*
X136422100Y-72774614D01*
X136386385Y-72738900D01*
X136314957Y-72703185D01*
X136136385Y-72703185D01*
X136029242Y-72738900D01*
X135707814Y-73453185D02*
X135707814Y-72703185D01*
X135529242Y-72703185D01*
X135422100Y-72738900D01*
X135350671Y-72810328D01*
X135314957Y-72881757D01*
X135279242Y-73024614D01*
X135279242Y-73131757D01*
X135314957Y-73274614D01*
X135350671Y-73346042D01*
X135422100Y-73417471D01*
X135529242Y-73453185D01*
X135707814Y-73453185D01*
X134993528Y-73238900D02*
X134636385Y-73238900D01*
X135064957Y-73453185D02*
X134814957Y-72703185D01*
X134564957Y-73453185D01*
X133753100Y-72728585D02*
X133503100Y-73478585D01*
X133253100Y-72728585D01*
X132574528Y-73407157D02*
X132610242Y-73442871D01*
X132717385Y-73478585D01*
X132788814Y-73478585D01*
X132895957Y-73442871D01*
X132967385Y-73371442D01*
X133003100Y-73300014D01*
X133038814Y-73157157D01*
X133038814Y-73050014D01*
X133003100Y-72907157D01*
X132967385Y-72835728D01*
X132895957Y-72764300D01*
X132788814Y-72728585D01*
X132717385Y-72728585D01*
X132610242Y-72764300D01*
X132574528Y-72800014D01*
X131824528Y-73407157D02*
X131860242Y-73442871D01*
X131967385Y-73478585D01*
X132038814Y-73478585D01*
X132145957Y-73442871D01*
X132217385Y-73371442D01*
X132253100Y-73300014D01*
X132288814Y-73157157D01*
X132288814Y-73050014D01*
X132253100Y-72907157D01*
X132217385Y-72835728D01*
X132145957Y-72764300D01*
X132038814Y-72728585D01*
X131967385Y-72728585D01*
X131860242Y-72764300D01*
X131824528Y-72800014D01*
%TO.C,BT1*%
X153049028Y-127817571D02*
X152906171Y-127865190D01*
X152858552Y-127912809D01*
X152810933Y-128008047D01*
X152810933Y-128150904D01*
X152858552Y-128246142D01*
X152906171Y-128293761D01*
X153001409Y-128341380D01*
X153382361Y-128341380D01*
X153382361Y-127341380D01*
X153049028Y-127341380D01*
X152953790Y-127389000D01*
X152906171Y-127436619D01*
X152858552Y-127531857D01*
X152858552Y-127627095D01*
X152906171Y-127722333D01*
X152953790Y-127769952D01*
X153049028Y-127817571D01*
X153382361Y-127817571D01*
X151953790Y-128341380D02*
X151953790Y-127817571D01*
X152001409Y-127722333D01*
X152096647Y-127674714D01*
X152287123Y-127674714D01*
X152382361Y-127722333D01*
X151953790Y-128293761D02*
X152049028Y-128341380D01*
X152287123Y-128341380D01*
X152382361Y-128293761D01*
X152429980Y-128198523D01*
X152429980Y-128103285D01*
X152382361Y-128008047D01*
X152287123Y-127960428D01*
X152049028Y-127960428D01*
X151953790Y-127912809D01*
X151620457Y-127674714D02*
X151239504Y-127674714D01*
X151477600Y-127341380D02*
X151477600Y-128198523D01*
X151429980Y-128293761D01*
X151334742Y-128341380D01*
X151239504Y-128341380D01*
X151049028Y-127674714D02*
X150668076Y-127674714D01*
X150906171Y-127341380D02*
X150906171Y-128198523D01*
X150858552Y-128293761D01*
X150763314Y-128341380D01*
X150668076Y-128341380D01*
X149953790Y-128293761D02*
X150049028Y-128341380D01*
X150239504Y-128341380D01*
X150334742Y-128293761D01*
X150382361Y-128198523D01*
X150382361Y-127817571D01*
X150334742Y-127722333D01*
X150239504Y-127674714D01*
X150049028Y-127674714D01*
X149953790Y-127722333D01*
X149906171Y-127817571D01*
X149906171Y-127912809D01*
X150382361Y-128008047D01*
X149477600Y-128341380D02*
X149477600Y-127674714D01*
X149477600Y-127865190D02*
X149429980Y-127769952D01*
X149382361Y-127722333D01*
X149287123Y-127674714D01*
X149191885Y-127674714D01*
X148953790Y-127674714D02*
X148715695Y-128341380D01*
X148477600Y-127674714D02*
X148715695Y-128341380D01*
X148810933Y-128579476D01*
X148858552Y-128627095D01*
X148953790Y-128674714D01*
%TO.C,U1*%
X174075280Y-116281509D02*
X174075280Y-115805319D01*
X173075280Y-115805319D01*
X173075280Y-116471985D02*
X173075280Y-117043414D01*
X174075280Y-116757700D02*
X173075280Y-116757700D01*
X173980042Y-117948176D02*
X174027661Y-117900557D01*
X174075280Y-117757700D01*
X174075280Y-117662461D01*
X174027661Y-117519604D01*
X173932423Y-117424366D01*
X173837185Y-117376747D01*
X173646709Y-117329128D01*
X173503852Y-117329128D01*
X173313376Y-117376747D01*
X173218138Y-117424366D01*
X173122900Y-117519604D01*
X173075280Y-117662461D01*
X173075280Y-117757700D01*
X173122900Y-117900557D01*
X173170519Y-117948176D01*
X173408614Y-118805319D02*
X174075280Y-118805319D01*
X173027661Y-118567223D02*
X173741947Y-118329128D01*
X173741947Y-118948176D01*
X173075280Y-119519604D02*
X173075280Y-119614842D01*
X173122900Y-119710080D01*
X173170519Y-119757700D01*
X173265757Y-119805319D01*
X173456233Y-119852938D01*
X173694328Y-119852938D01*
X173884804Y-119805319D01*
X173980042Y-119757700D01*
X174027661Y-119710080D01*
X174075280Y-119614842D01*
X174075280Y-119519604D01*
X174027661Y-119424366D01*
X173980042Y-119376747D01*
X173884804Y-119329128D01*
X173694328Y-119281509D01*
X173456233Y-119281509D01*
X173265757Y-119329128D01*
X173170519Y-119376747D01*
X173122900Y-119424366D01*
X173075280Y-119519604D01*
X173075280Y-120757700D02*
X173075280Y-120281509D01*
X173551471Y-120233890D01*
X173503852Y-120281509D01*
X173456233Y-120376747D01*
X173456233Y-120614842D01*
X173503852Y-120710080D01*
X173551471Y-120757700D01*
X173646709Y-120805319D01*
X173884804Y-120805319D01*
X173980042Y-120757700D01*
X174027661Y-120710080D01*
X174075280Y-120614842D01*
X174075280Y-120376747D01*
X174027661Y-120281509D01*
X173980042Y-120233890D01*
X173408614Y-121662461D02*
X174075280Y-121662461D01*
X173027661Y-121424366D02*
X173741947Y-121186271D01*
X173741947Y-121805319D01*
%TO.C,J1*%
X116512380Y-117700466D02*
X117226666Y-117700466D01*
X117369523Y-117652847D01*
X117464761Y-117557609D01*
X117512380Y-117414752D01*
X117512380Y-117319514D01*
X117512380Y-118700466D02*
X117512380Y-118129038D01*
X117512380Y-118414752D02*
X116512380Y-118414752D01*
X116655238Y-118319514D01*
X116750476Y-118224276D01*
X116798095Y-118129038D01*
%TO.C,R7*%
X149829780Y-118549752D02*
X149829780Y-117978323D01*
X149829780Y-118264038D02*
X148829780Y-118264038D01*
X148972638Y-118168800D01*
X149067876Y-118073561D01*
X149115495Y-117978323D01*
X149829780Y-118978323D02*
X148829780Y-118978323D01*
X149448828Y-119073561D02*
X149829780Y-119359276D01*
X149163114Y-119359276D02*
X149544066Y-118978323D01*
%TO.C,R5*%
X191887314Y-110136780D02*
X191268266Y-110136780D01*
X191601600Y-110517733D01*
X191458742Y-110517733D01*
X191363504Y-110565352D01*
X191315885Y-110612971D01*
X191268266Y-110708209D01*
X191268266Y-110946304D01*
X191315885Y-111041542D01*
X191363504Y-111089161D01*
X191458742Y-111136780D01*
X191744457Y-111136780D01*
X191839695Y-111089161D01*
X191887314Y-111041542D01*
X190934933Y-110136780D02*
X190315885Y-110136780D01*
X190649219Y-110517733D01*
X190506361Y-110517733D01*
X190411123Y-110565352D01*
X190363504Y-110612971D01*
X190315885Y-110708209D01*
X190315885Y-110946304D01*
X190363504Y-111041542D01*
X190411123Y-111089161D01*
X190506361Y-111136780D01*
X190792076Y-111136780D01*
X190887314Y-111089161D01*
X190934933Y-111041542D01*
X189696838Y-110136780D02*
X189601600Y-110136780D01*
X189506361Y-110184400D01*
X189458742Y-110232019D01*
X189411123Y-110327257D01*
X189363504Y-110517733D01*
X189363504Y-110755828D01*
X189411123Y-110946304D01*
X189458742Y-111041542D01*
X189506361Y-111089161D01*
X189601600Y-111136780D01*
X189696838Y-111136780D01*
X189792076Y-111089161D01*
X189839695Y-111041542D01*
X189887314Y-110946304D01*
X189934933Y-110755828D01*
X189934933Y-110517733D01*
X189887314Y-110327257D01*
X189839695Y-110232019D01*
X189792076Y-110184400D01*
X189696838Y-110136780D01*
%TO.C,R2*%
X190288847Y-91596380D02*
X190860276Y-91596380D01*
X190574561Y-91596380D02*
X190574561Y-90596380D01*
X190669800Y-90739238D01*
X190765038Y-90834476D01*
X190860276Y-90882095D01*
X189860276Y-91596380D02*
X189860276Y-90596380D01*
X189765038Y-91215428D02*
X189479323Y-91596380D01*
X189479323Y-90929714D02*
X189860276Y-91310666D01*
%TO.C,U2*%
X135745771Y-97123714D02*
X135745771Y-97457047D01*
X136269580Y-97599904D02*
X136269580Y-97123714D01*
X135269580Y-97123714D01*
X135269580Y-97599904D01*
X136221961Y-97980857D02*
X136269580Y-98123714D01*
X136269580Y-98361809D01*
X136221961Y-98457047D01*
X136174342Y-98504666D01*
X136079104Y-98552285D01*
X135983866Y-98552285D01*
X135888628Y-98504666D01*
X135841009Y-98457047D01*
X135793390Y-98361809D01*
X135745771Y-98171333D01*
X135698152Y-98076095D01*
X135650533Y-98028476D01*
X135555295Y-97980857D01*
X135460057Y-97980857D01*
X135364819Y-98028476D01*
X135317200Y-98076095D01*
X135269580Y-98171333D01*
X135269580Y-98409428D01*
X135317200Y-98552285D01*
X136269580Y-98980857D02*
X135269580Y-98980857D01*
X135269580Y-99361809D01*
X135317200Y-99457047D01*
X135364819Y-99504666D01*
X135460057Y-99552285D01*
X135602914Y-99552285D01*
X135698152Y-99504666D01*
X135745771Y-99457047D01*
X135793390Y-99361809D01*
X135793390Y-98980857D01*
X135269580Y-99885619D02*
X135269580Y-100504666D01*
X135650533Y-100171333D01*
X135650533Y-100314190D01*
X135698152Y-100409428D01*
X135745771Y-100457047D01*
X135841009Y-100504666D01*
X136079104Y-100504666D01*
X136174342Y-100457047D01*
X136221961Y-100409428D01*
X136269580Y-100314190D01*
X136269580Y-100028476D01*
X136221961Y-99933238D01*
X136174342Y-99885619D01*
X135364819Y-100885619D02*
X135317200Y-100933238D01*
X135269580Y-101028476D01*
X135269580Y-101266571D01*
X135317200Y-101361809D01*
X135364819Y-101409428D01*
X135460057Y-101457047D01*
X135555295Y-101457047D01*
X135698152Y-101409428D01*
X136269580Y-100838000D01*
X136269580Y-101457047D01*
X135888628Y-101885619D02*
X135888628Y-102647523D01*
X136221961Y-103076095D02*
X136269580Y-103218952D01*
X136269580Y-103457047D01*
X136221961Y-103552285D01*
X136174342Y-103599904D01*
X136079104Y-103647523D01*
X135983866Y-103647523D01*
X135888628Y-103599904D01*
X135841009Y-103552285D01*
X135793390Y-103457047D01*
X135745771Y-103266571D01*
X135698152Y-103171333D01*
X135650533Y-103123714D01*
X135555295Y-103076095D01*
X135460057Y-103076095D01*
X135364819Y-103123714D01*
X135317200Y-103171333D01*
X135269580Y-103266571D01*
X135269580Y-103504666D01*
X135317200Y-103647523D01*
X135364819Y-104028476D02*
X135317200Y-104076095D01*
X135269580Y-104171333D01*
X135269580Y-104409428D01*
X135317200Y-104504666D01*
X135364819Y-104552285D01*
X135460057Y-104599904D01*
X135555295Y-104599904D01*
X135698152Y-104552285D01*
X136269580Y-103980857D01*
X136269580Y-104599904D01*
X105983866Y-96076095D02*
X105983866Y-96552285D01*
X106269580Y-95980857D02*
X105269580Y-96314190D01*
X106269580Y-96647523D01*
X105602914Y-96980857D02*
X106269580Y-96980857D01*
X105698152Y-96980857D02*
X105650533Y-97028476D01*
X105602914Y-97123714D01*
X105602914Y-97266571D01*
X105650533Y-97361809D01*
X105745771Y-97409428D01*
X106269580Y-97409428D01*
X105602914Y-97742761D02*
X105602914Y-98123714D01*
X105269580Y-97885619D02*
X106126723Y-97885619D01*
X106221961Y-97933238D01*
X106269580Y-98028476D01*
X106269580Y-98123714D01*
X106221961Y-98838000D02*
X106269580Y-98742761D01*
X106269580Y-98552285D01*
X106221961Y-98457047D01*
X106126723Y-98409428D01*
X105745771Y-98409428D01*
X105650533Y-98457047D01*
X105602914Y-98552285D01*
X105602914Y-98742761D01*
X105650533Y-98838000D01*
X105745771Y-98885619D01*
X105841009Y-98885619D01*
X105936247Y-98409428D01*
X105602914Y-99314190D02*
X106269580Y-99314190D01*
X105698152Y-99314190D02*
X105650533Y-99361809D01*
X105602914Y-99457047D01*
X105602914Y-99599904D01*
X105650533Y-99695142D01*
X105745771Y-99742761D01*
X106269580Y-99742761D01*
X105602914Y-100218952D02*
X106269580Y-100218952D01*
X105698152Y-100218952D02*
X105650533Y-100266571D01*
X105602914Y-100361809D01*
X105602914Y-100504666D01*
X105650533Y-100599904D01*
X105745771Y-100647523D01*
X106269580Y-100647523D01*
X106269580Y-101552285D02*
X105745771Y-101552285D01*
X105650533Y-101504666D01*
X105602914Y-101409428D01*
X105602914Y-101218952D01*
X105650533Y-101123714D01*
X106221961Y-101552285D02*
X106269580Y-101457047D01*
X106269580Y-101218952D01*
X106221961Y-101123714D01*
X106126723Y-101076095D01*
X106031485Y-101076095D01*
X105936247Y-101123714D01*
X105888628Y-101218952D01*
X105888628Y-101457047D01*
X105841009Y-101552285D01*
X105983866Y-102742761D02*
X105983866Y-103218952D01*
X106269580Y-102647523D02*
X105269580Y-102980857D01*
X106269580Y-103314190D01*
X106269580Y-103647523D02*
X105602914Y-103647523D01*
X105793390Y-103647523D02*
X105698152Y-103695142D01*
X105650533Y-103742761D01*
X105602914Y-103838000D01*
X105602914Y-103933238D01*
X106221961Y-104647523D02*
X106269580Y-104552285D01*
X106269580Y-104361809D01*
X106221961Y-104266571D01*
X106126723Y-104218952D01*
X105745771Y-104218952D01*
X105650533Y-104266571D01*
X105602914Y-104361809D01*
X105602914Y-104552285D01*
X105650533Y-104647523D01*
X105745771Y-104695142D01*
X105841009Y-104695142D01*
X105936247Y-104218952D01*
X106269580Y-105552285D02*
X105745771Y-105552285D01*
X105650533Y-105504666D01*
X105602914Y-105409428D01*
X105602914Y-105218952D01*
X105650533Y-105123714D01*
X106221961Y-105552285D02*
X106269580Y-105457047D01*
X106269580Y-105218952D01*
X106221961Y-105123714D01*
X106126723Y-105076095D01*
X106031485Y-105076095D01*
X105936247Y-105123714D01*
X105888628Y-105218952D01*
X105888628Y-105457047D01*
X105841009Y-105552285D01*
%TO.C,D3*%
X198842000Y-107087942D02*
X198889619Y-107135561D01*
X199032476Y-107183180D01*
X199127714Y-107183180D01*
X199270571Y-107135561D01*
X199365809Y-107040323D01*
X199413428Y-106945085D01*
X199461047Y-106754609D01*
X199461047Y-106611752D01*
X199413428Y-106421276D01*
X199365809Y-106326038D01*
X199270571Y-106230800D01*
X199127714Y-106183180D01*
X199032476Y-106183180D01*
X198889619Y-106230800D01*
X198842000Y-106278419D01*
X198413428Y-107183180D02*
X198413428Y-106183180D01*
X197984857Y-107183180D02*
X197984857Y-106659371D01*
X198032476Y-106564133D01*
X198127714Y-106516514D01*
X198270571Y-106516514D01*
X198365809Y-106564133D01*
X198413428Y-106611752D01*
X197080095Y-107183180D02*
X197080095Y-106659371D01*
X197127714Y-106564133D01*
X197222952Y-106516514D01*
X197413428Y-106516514D01*
X197508666Y-106564133D01*
X197080095Y-107135561D02*
X197175333Y-107183180D01*
X197413428Y-107183180D01*
X197508666Y-107135561D01*
X197556285Y-107040323D01*
X197556285Y-106945085D01*
X197508666Y-106849847D01*
X197413428Y-106802228D01*
X197175333Y-106802228D01*
X197080095Y-106754609D01*
X196603904Y-107183180D02*
X196603904Y-106516514D01*
X196603904Y-106706990D02*
X196556285Y-106611752D01*
X196508666Y-106564133D01*
X196413428Y-106516514D01*
X196318190Y-106516514D01*
X195556285Y-106516514D02*
X195556285Y-107326038D01*
X195603904Y-107421276D01*
X195651523Y-107468895D01*
X195746761Y-107516514D01*
X195889619Y-107516514D01*
X195984857Y-107468895D01*
X195556285Y-107135561D02*
X195651523Y-107183180D01*
X195842000Y-107183180D01*
X195937238Y-107135561D01*
X195984857Y-107087942D01*
X196032476Y-106992704D01*
X196032476Y-106706990D01*
X195984857Y-106611752D01*
X195937238Y-106564133D01*
X195842000Y-106516514D01*
X195651523Y-106516514D01*
X195556285Y-106564133D01*
X195080095Y-107183180D02*
X195080095Y-106516514D01*
X195080095Y-106183180D02*
X195127714Y-106230800D01*
X195080095Y-106278419D01*
X195032476Y-106230800D01*
X195080095Y-106183180D01*
X195080095Y-106278419D01*
X194603904Y-106516514D02*
X194603904Y-107183180D01*
X194603904Y-106611752D02*
X194556285Y-106564133D01*
X194461047Y-106516514D01*
X194318190Y-106516514D01*
X194222952Y-106564133D01*
X194175333Y-106659371D01*
X194175333Y-107183180D01*
X193270571Y-106516514D02*
X193270571Y-107326038D01*
X193318190Y-107421276D01*
X193365809Y-107468895D01*
X193461047Y-107516514D01*
X193603904Y-107516514D01*
X193699142Y-107468895D01*
X193270571Y-107135561D02*
X193365809Y-107183180D01*
X193556285Y-107183180D01*
X193651523Y-107135561D01*
X193699142Y-107087942D01*
X193746761Y-106992704D01*
X193746761Y-106706990D01*
X193699142Y-106611752D01*
X193651523Y-106564133D01*
X193556285Y-106516514D01*
X193365809Y-106516514D01*
X193270571Y-106564133D01*
%TO.C,C1*%
X190892038Y-116708180D02*
X191463466Y-116708180D01*
X191177752Y-116708180D02*
X191177752Y-115708180D01*
X191272990Y-115851038D01*
X191368228Y-115946276D01*
X191463466Y-115993895D01*
X190034895Y-116041514D02*
X190034895Y-116708180D01*
X190463466Y-116041514D02*
X190463466Y-116565323D01*
X190415847Y-116660561D01*
X190320609Y-116708180D01*
X190177752Y-116708180D01*
X190082514Y-116660561D01*
X190034895Y-116612942D01*
X189225371Y-116184371D02*
X189558704Y-116184371D01*
X189558704Y-116708180D02*
X189558704Y-115708180D01*
X189082514Y-115708180D01*
%TO.C,R8*%
X152699980Y-118549752D02*
X152699980Y-117978323D01*
X152699980Y-118264038D02*
X151699980Y-118264038D01*
X151842838Y-118168800D01*
X151938076Y-118073561D01*
X151985695Y-117978323D01*
X152699980Y-118978323D02*
X151699980Y-118978323D01*
X152319028Y-119073561D02*
X152699980Y-119359276D01*
X152033314Y-119359276D02*
X152414266Y-118978323D01*
%TO.C,U4*%
X175245780Y-108864495D02*
X176055304Y-108864495D01*
X176150542Y-108912114D01*
X176198161Y-108959733D01*
X176245780Y-109054971D01*
X176245780Y-109245447D01*
X176198161Y-109340685D01*
X176150542Y-109388304D01*
X176055304Y-109435923D01*
X175245780Y-109435923D01*
X175579114Y-110340685D02*
X176245780Y-110340685D01*
X175198161Y-110102590D02*
X175912447Y-109864495D01*
X175912447Y-110483542D01*
X180895780Y-105231961D02*
X180895780Y-105803390D01*
X181895780Y-105517676D02*
X180895780Y-105517676D01*
X181895780Y-106612914D02*
X181895780Y-106136723D01*
X180895780Y-106136723D01*
X180895780Y-106803390D02*
X181895780Y-107136723D01*
X180895780Y-107470057D01*
X181895780Y-108327200D02*
X181895780Y-107755771D01*
X181895780Y-108041485D02*
X180895780Y-108041485D01*
X181038638Y-107946247D01*
X181133876Y-107851009D01*
X181181495Y-107755771D01*
X181895780Y-109279580D02*
X181895780Y-108708152D01*
X181895780Y-108993866D02*
X180895780Y-108993866D01*
X181038638Y-108898628D01*
X181133876Y-108803390D01*
X181181495Y-108708152D01*
X181895780Y-110231961D02*
X181895780Y-109660533D01*
X181895780Y-109946247D02*
X180895780Y-109946247D01*
X181038638Y-109851009D01*
X181133876Y-109755771D01*
X181181495Y-109660533D01*
X180895780Y-110565295D02*
X180895780Y-111231961D01*
X181895780Y-110803390D01*
X181514828Y-111612914D02*
X181514828Y-112374819D01*
X180895780Y-112755771D02*
X180895780Y-113374819D01*
X181276733Y-113041485D01*
X181276733Y-113184342D01*
X181324352Y-113279580D01*
X181371971Y-113327200D01*
X181467209Y-113374819D01*
X181705304Y-113374819D01*
X181800542Y-113327200D01*
X181848161Y-113279580D01*
X181895780Y-113184342D01*
X181895780Y-112898628D01*
X181848161Y-112803390D01*
X181800542Y-112755771D01*
X180895780Y-113708152D02*
X180895780Y-114327200D01*
X181276733Y-113993866D01*
X181276733Y-114136723D01*
X181324352Y-114231961D01*
X181371971Y-114279580D01*
X181467209Y-114327200D01*
X181705304Y-114327200D01*
X181800542Y-114279580D01*
X181848161Y-114231961D01*
X181895780Y-114136723D01*
X181895780Y-113851009D01*
X181848161Y-113755771D01*
X181800542Y-113708152D01*
%TO.C,R3*%
X165841276Y-118893419D02*
X165793657Y-118845800D01*
X165698419Y-118798180D01*
X165460323Y-118798180D01*
X165365085Y-118845800D01*
X165317466Y-118893419D01*
X165269847Y-118988657D01*
X165269847Y-119083895D01*
X165317466Y-119226752D01*
X165888895Y-119798180D01*
X165269847Y-119798180D01*
X164841276Y-119798180D02*
X164841276Y-118798180D01*
X164746038Y-119417228D02*
X164460323Y-119798180D01*
X164460323Y-119131514D02*
X164841276Y-119512466D01*
%TO.C,J5*%
X188656980Y-119211980D02*
X188656980Y-118735790D01*
X189133171Y-118688171D01*
X189085552Y-118735790D01*
X189037933Y-118831028D01*
X189037933Y-119069123D01*
X189085552Y-119164361D01*
X189133171Y-119211980D01*
X189228409Y-119259600D01*
X189466504Y-119259600D01*
X189561742Y-119211980D01*
X189609361Y-119164361D01*
X189656980Y-119069123D01*
X189656980Y-118831028D01*
X189609361Y-118735790D01*
X189561742Y-118688171D01*
X188990314Y-119592933D02*
X189656980Y-119831028D01*
X188990314Y-120069123D01*
X188704600Y-121735790D02*
X188656980Y-121640552D01*
X188656980Y-121497695D01*
X188704600Y-121354838D01*
X188799838Y-121259600D01*
X188895076Y-121211980D01*
X189085552Y-121164361D01*
X189228409Y-121164361D01*
X189418885Y-121211980D01*
X189514123Y-121259600D01*
X189609361Y-121354838D01*
X189656980Y-121497695D01*
X189656980Y-121592933D01*
X189609361Y-121735790D01*
X189561742Y-121783409D01*
X189228409Y-121783409D01*
X189228409Y-121592933D01*
X189656980Y-122211980D02*
X188656980Y-122211980D01*
X189656980Y-122783409D01*
X188656980Y-122783409D01*
X189656980Y-123259600D02*
X188656980Y-123259600D01*
X188656980Y-123497695D01*
X188704600Y-123640552D01*
X188799838Y-123735790D01*
X188895076Y-123783409D01*
X189085552Y-123831028D01*
X189228409Y-123831028D01*
X189418885Y-123783409D01*
X189514123Y-123735790D01*
X189609361Y-123640552D01*
X189656980Y-123497695D01*
X189656980Y-123259600D01*
%TO.C,R6*%
X146934180Y-118600552D02*
X146934180Y-118029123D01*
X146934180Y-118314838D02*
X145934180Y-118314838D01*
X146077038Y-118219600D01*
X146172276Y-118124361D01*
X146219895Y-118029123D01*
X146934180Y-119029123D02*
X145934180Y-119029123D01*
X146553228Y-119124361D02*
X146934180Y-119410076D01*
X146267514Y-119410076D02*
X146648466Y-119029123D01*
%TO.C,U3*%
X182305342Y-92346733D02*
X182352961Y-92299114D01*
X182400580Y-92156257D01*
X182400580Y-92061019D01*
X182352961Y-91918161D01*
X182257723Y-91822923D01*
X182162485Y-91775304D01*
X181972009Y-91727685D01*
X181829152Y-91727685D01*
X181638676Y-91775304D01*
X181543438Y-91822923D01*
X181448200Y-91918161D01*
X181400580Y-92061019D01*
X181400580Y-92156257D01*
X181448200Y-92299114D01*
X181495819Y-92346733D01*
X182400580Y-92775304D02*
X181400580Y-92775304D01*
X181876771Y-92775304D02*
X181876771Y-93346733D01*
X182400580Y-93346733D02*
X181400580Y-93346733D01*
X181400580Y-93727685D02*
X181400580Y-94346733D01*
X181781533Y-94013400D01*
X181781533Y-94156257D01*
X181829152Y-94251495D01*
X181876771Y-94299114D01*
X181972009Y-94346733D01*
X182210104Y-94346733D01*
X182305342Y-94299114D01*
X182352961Y-94251495D01*
X182400580Y-94156257D01*
X182400580Y-93870542D01*
X182352961Y-93775304D01*
X182305342Y-93727685D01*
X181400580Y-94680066D02*
X181400580Y-95299114D01*
X181781533Y-94965780D01*
X181781533Y-95108638D01*
X181829152Y-95203876D01*
X181876771Y-95251495D01*
X181972009Y-95299114D01*
X182210104Y-95299114D01*
X182305342Y-95251495D01*
X182352961Y-95203876D01*
X182400580Y-95108638D01*
X182400580Y-94822923D01*
X182352961Y-94727685D01*
X182305342Y-94680066D01*
X181400580Y-95918161D02*
X181400580Y-96013400D01*
X181448200Y-96108638D01*
X181495819Y-96156257D01*
X181591057Y-96203876D01*
X181781533Y-96251495D01*
X182019628Y-96251495D01*
X182210104Y-96203876D01*
X182305342Y-96156257D01*
X182352961Y-96108638D01*
X182400580Y-96013400D01*
X182400580Y-95918161D01*
X182352961Y-95822923D01*
X182305342Y-95775304D01*
X182210104Y-95727685D01*
X182019628Y-95680066D01*
X181781533Y-95680066D01*
X181591057Y-95727685D01*
X181495819Y-95775304D01*
X181448200Y-95822923D01*
X181400580Y-95918161D01*
X182400580Y-96680066D02*
X181400580Y-96680066D01*
X182400580Y-97251495D01*
X181400580Y-97251495D01*
%TO.C,J3*%
X193642952Y-84754980D02*
X193642952Y-83754980D01*
X193404857Y-83754980D01*
X193262000Y-83802600D01*
X193166761Y-83897838D01*
X193119142Y-83993076D01*
X193071523Y-84183552D01*
X193071523Y-84326409D01*
X193119142Y-84516885D01*
X193166761Y-84612123D01*
X193262000Y-84707361D01*
X193404857Y-84754980D01*
X193642952Y-84754980D01*
X192642952Y-84374028D02*
X191881047Y-84374028D01*
X190642952Y-84754980D02*
X190642952Y-83754980D01*
X190404857Y-83754980D01*
X190262000Y-83802600D01*
X190166761Y-83897838D01*
X190119142Y-83993076D01*
X190071523Y-84183552D01*
X190071523Y-84326409D01*
X190119142Y-84516885D01*
X190166761Y-84612123D01*
X190262000Y-84707361D01*
X190404857Y-84754980D01*
X190642952Y-84754980D01*
X189642952Y-84374028D02*
X188881047Y-84374028D01*
X189262000Y-84754980D02*
X189262000Y-83993076D01*
%TO.C,C4*%
X175963057Y-97751380D02*
X175867819Y-97751380D01*
X175772580Y-97799000D01*
X175724961Y-97846619D01*
X175677342Y-97941857D01*
X175629723Y-98132333D01*
X175629723Y-98370428D01*
X175677342Y-98560904D01*
X175724961Y-98656142D01*
X175772580Y-98703761D01*
X175867819Y-98751380D01*
X175963057Y-98751380D01*
X176058295Y-98703761D01*
X176105914Y-98656142D01*
X176153533Y-98560904D01*
X176201152Y-98370428D01*
X176201152Y-98132333D01*
X176153533Y-97941857D01*
X176105914Y-97846619D01*
X176058295Y-97799000D01*
X175963057Y-97751380D01*
X175201152Y-98656142D02*
X175153533Y-98703761D01*
X175201152Y-98751380D01*
X175248771Y-98703761D01*
X175201152Y-98656142D01*
X175201152Y-98751380D01*
X174201152Y-98751380D02*
X174772580Y-98751380D01*
X174486866Y-98751380D02*
X174486866Y-97751380D01*
X174582104Y-97894238D01*
X174677342Y-97989476D01*
X174772580Y-98037095D01*
X173344009Y-98084714D02*
X173344009Y-98751380D01*
X173772580Y-98084714D02*
X173772580Y-98608523D01*
X173724961Y-98703761D01*
X173629723Y-98751380D01*
X173486866Y-98751380D01*
X173391628Y-98703761D01*
X173344009Y-98656142D01*
X172534485Y-98227571D02*
X172867819Y-98227571D01*
X172867819Y-98751380D02*
X172867819Y-97751380D01*
X172391628Y-97751380D01*
%TO.C,R4*%
X115130247Y-126021180D02*
X115701676Y-126021180D01*
X115415961Y-126021180D02*
X115415961Y-125021180D01*
X115511200Y-125164038D01*
X115606438Y-125259276D01*
X115701676Y-125306895D01*
X114701676Y-126021180D02*
X114701676Y-125021180D01*
X114606438Y-125640228D02*
X114320723Y-126021180D01*
X114320723Y-125354514D02*
X114701676Y-125735466D01*
%TO.C,SW2*%
X116206447Y-83252171D02*
X116063590Y-83299790D01*
X116015971Y-83347409D01*
X115968352Y-83442647D01*
X115968352Y-83585504D01*
X116015971Y-83680742D01*
X116063590Y-83728361D01*
X116158828Y-83775980D01*
X116539780Y-83775980D01*
X116539780Y-82775980D01*
X116206447Y-82775980D01*
X116111209Y-82823600D01*
X116063590Y-82871219D01*
X116015971Y-82966457D01*
X116015971Y-83061695D01*
X116063590Y-83156933D01*
X116111209Y-83204552D01*
X116206447Y-83252171D01*
X116539780Y-83252171D01*
X115396923Y-83775980D02*
X115492161Y-83728361D01*
X115539780Y-83680742D01*
X115587400Y-83585504D01*
X115587400Y-83299790D01*
X115539780Y-83204552D01*
X115492161Y-83156933D01*
X115396923Y-83109314D01*
X115254066Y-83109314D01*
X115158828Y-83156933D01*
X115111209Y-83204552D01*
X115063590Y-83299790D01*
X115063590Y-83585504D01*
X115111209Y-83680742D01*
X115158828Y-83728361D01*
X115254066Y-83775980D01*
X115396923Y-83775980D01*
X114492161Y-83775980D02*
X114587400Y-83728361D01*
X114635019Y-83680742D01*
X114682638Y-83585504D01*
X114682638Y-83299790D01*
X114635019Y-83204552D01*
X114587400Y-83156933D01*
X114492161Y-83109314D01*
X114349304Y-83109314D01*
X114254066Y-83156933D01*
X114206447Y-83204552D01*
X114158828Y-83299790D01*
X114158828Y-83585504D01*
X114206447Y-83680742D01*
X114254066Y-83728361D01*
X114349304Y-83775980D01*
X114492161Y-83775980D01*
X113873114Y-83109314D02*
X113492161Y-83109314D01*
X113730257Y-82775980D02*
X113730257Y-83633123D01*
X113682638Y-83728361D01*
X113587400Y-83775980D01*
X113492161Y-83775980D01*
%TO.C,R9*%
X139627780Y-98058361D02*
X139627780Y-97486933D01*
X139627780Y-97772647D02*
X138627780Y-97772647D01*
X138770638Y-97677409D01*
X138865876Y-97582171D01*
X138913495Y-97486933D01*
X138627780Y-98677409D02*
X138627780Y-98772647D01*
X138675400Y-98867885D01*
X138723019Y-98915504D01*
X138818257Y-98963123D01*
X139008733Y-99010742D01*
X139246828Y-99010742D01*
X139437304Y-98963123D01*
X139532542Y-98915504D01*
X139580161Y-98867885D01*
X139627780Y-98772647D01*
X139627780Y-98677409D01*
X139580161Y-98582171D01*
X139532542Y-98534552D01*
X139437304Y-98486933D01*
X139246828Y-98439314D01*
X139008733Y-98439314D01*
X138818257Y-98486933D01*
X138723019Y-98534552D01*
X138675400Y-98582171D01*
X138627780Y-98677409D01*
X139627780Y-99439314D02*
X138627780Y-99439314D01*
X139246828Y-99534552D02*
X139627780Y-99820266D01*
X138961114Y-99820266D02*
X139342066Y-99439314D01*
%TO.C,SW_Reset1*%
X112820295Y-115652980D02*
X113153628Y-115176790D01*
X113391723Y-115652980D02*
X113391723Y-114652980D01*
X113010771Y-114652980D01*
X112915533Y-114700600D01*
X112867914Y-114748219D01*
X112820295Y-114843457D01*
X112820295Y-114986314D01*
X112867914Y-115081552D01*
X112915533Y-115129171D01*
X113010771Y-115176790D01*
X113391723Y-115176790D01*
X112010771Y-115605361D02*
X112106009Y-115652980D01*
X112296485Y-115652980D01*
X112391723Y-115605361D01*
X112439342Y-115510123D01*
X112439342Y-115129171D01*
X112391723Y-115033933D01*
X112296485Y-114986314D01*
X112106009Y-114986314D01*
X112010771Y-115033933D01*
X111963152Y-115129171D01*
X111963152Y-115224409D01*
X112439342Y-115319647D01*
X111582200Y-115605361D02*
X111486961Y-115652980D01*
X111296485Y-115652980D01*
X111201247Y-115605361D01*
X111153628Y-115510123D01*
X111153628Y-115462504D01*
X111201247Y-115367266D01*
X111296485Y-115319647D01*
X111439342Y-115319647D01*
X111534580Y-115272028D01*
X111582200Y-115176790D01*
X111582200Y-115129171D01*
X111534580Y-115033933D01*
X111439342Y-114986314D01*
X111296485Y-114986314D01*
X111201247Y-115033933D01*
X110344104Y-115605361D02*
X110439342Y-115652980D01*
X110629819Y-115652980D01*
X110725057Y-115605361D01*
X110772676Y-115510123D01*
X110772676Y-115129171D01*
X110725057Y-115033933D01*
X110629819Y-114986314D01*
X110439342Y-114986314D01*
X110344104Y-115033933D01*
X110296485Y-115129171D01*
X110296485Y-115224409D01*
X110772676Y-115319647D01*
X110010771Y-114986314D02*
X109629819Y-114986314D01*
X109867914Y-114652980D02*
X109867914Y-115510123D01*
X109820295Y-115605361D01*
X109725057Y-115652980D01*
X109629819Y-115652980D01*
%TO.C,C3*%
X110685057Y-88098380D02*
X110589819Y-88098380D01*
X110494580Y-88146000D01*
X110446961Y-88193619D01*
X110399342Y-88288857D01*
X110351723Y-88479333D01*
X110351723Y-88717428D01*
X110399342Y-88907904D01*
X110446961Y-89003142D01*
X110494580Y-89050761D01*
X110589819Y-89098380D01*
X110685057Y-89098380D01*
X110780295Y-89050761D01*
X110827914Y-89003142D01*
X110875533Y-88907904D01*
X110923152Y-88717428D01*
X110923152Y-88479333D01*
X110875533Y-88288857D01*
X110827914Y-88193619D01*
X110780295Y-88146000D01*
X110685057Y-88098380D01*
X109923152Y-89003142D02*
X109875533Y-89050761D01*
X109923152Y-89098380D01*
X109970771Y-89050761D01*
X109923152Y-89003142D01*
X109923152Y-89098380D01*
X108923152Y-89098380D02*
X109494580Y-89098380D01*
X109208866Y-89098380D02*
X109208866Y-88098380D01*
X109304104Y-88241238D01*
X109399342Y-88336476D01*
X109494580Y-88384095D01*
X108066009Y-88431714D02*
X108066009Y-89098380D01*
X108494580Y-88431714D02*
X108494580Y-88955523D01*
X108446961Y-89050761D01*
X108351723Y-89098380D01*
X108208866Y-89098380D01*
X108113628Y-89050761D01*
X108066009Y-89003142D01*
X107256485Y-88574571D02*
X107589819Y-88574571D01*
X107589819Y-89098380D02*
X107589819Y-88098380D01*
X107113628Y-88098380D01*
%TO.C,C5*%
X182236857Y-101102180D02*
X182141619Y-101102180D01*
X182046380Y-101149800D01*
X181998761Y-101197419D01*
X181951142Y-101292657D01*
X181903523Y-101483133D01*
X181903523Y-101721228D01*
X181951142Y-101911704D01*
X181998761Y-102006942D01*
X182046380Y-102054561D01*
X182141619Y-102102180D01*
X182236857Y-102102180D01*
X182332095Y-102054561D01*
X182379714Y-102006942D01*
X182427333Y-101911704D01*
X182474952Y-101721228D01*
X182474952Y-101483133D01*
X182427333Y-101292657D01*
X182379714Y-101197419D01*
X182332095Y-101149800D01*
X182236857Y-101102180D01*
X181474952Y-102006942D02*
X181427333Y-102054561D01*
X181474952Y-102102180D01*
X181522571Y-102054561D01*
X181474952Y-102006942D01*
X181474952Y-102102180D01*
X180474952Y-102102180D02*
X181046380Y-102102180D01*
X180760666Y-102102180D02*
X180760666Y-101102180D01*
X180855904Y-101245038D01*
X180951142Y-101340276D01*
X181046380Y-101387895D01*
X179617809Y-101435514D02*
X179617809Y-102102180D01*
X180046380Y-101435514D02*
X180046380Y-101959323D01*
X179998761Y-102054561D01*
X179903523Y-102102180D01*
X179760666Y-102102180D01*
X179665428Y-102054561D01*
X179617809Y-102006942D01*
X178808285Y-101578371D02*
X179141619Y-101578371D01*
X179141619Y-102102180D02*
X179141619Y-101102180D01*
X178665428Y-101102180D01*
%TO.C,R1*%
X144063980Y-118676752D02*
X144063980Y-118105323D01*
X144063980Y-118391038D02*
X143063980Y-118391038D01*
X143206838Y-118295800D01*
X143302076Y-118200561D01*
X143349695Y-118105323D01*
X144063980Y-119105323D02*
X143063980Y-119105323D01*
X143683028Y-119200561D02*
X144063980Y-119486276D01*
X143397314Y-119486276D02*
X143778266Y-119105323D01*
%TO.C,D2*%
X197564238Y-95287180D02*
X197564238Y-94287180D01*
X197183285Y-94287180D01*
X197088047Y-94334800D01*
X197040428Y-94382419D01*
X196992809Y-94477657D01*
X196992809Y-94620514D01*
X197040428Y-94715752D01*
X197088047Y-94763371D01*
X197183285Y-94810990D01*
X197564238Y-94810990D01*
X196659476Y-94620514D02*
X196469000Y-95287180D01*
X196278523Y-94810990D01*
X196088047Y-95287180D01*
X195897571Y-94620514D01*
X195516619Y-95287180D02*
X195516619Y-94620514D01*
X195516619Y-94810990D02*
X195469000Y-94715752D01*
X195421380Y-94668133D01*
X195326142Y-94620514D01*
X195230904Y-94620514D01*
%TO.C,kibuzzard-633CCB9B*%
G36*
X167741358Y-105163470D02*
G01*
X167889285Y-105185413D01*
X168034348Y-105221750D01*
X168175152Y-105272130D01*
X168310339Y-105336069D01*
X168438608Y-105412950D01*
X168558724Y-105502034D01*
X168669530Y-105602463D01*
X168769958Y-105713269D01*
X168859042Y-105833384D01*
X168935924Y-105961654D01*
X168999863Y-106096841D01*
X169050243Y-106237645D01*
X169086580Y-106382708D01*
X169108523Y-106530635D01*
X169115860Y-106680000D01*
X169108523Y-106829365D01*
X169086580Y-106977292D01*
X169050243Y-107122355D01*
X168999863Y-107263159D01*
X168935924Y-107398346D01*
X168859042Y-107526616D01*
X168769958Y-107646731D01*
X168669530Y-107757537D01*
X168558724Y-107857966D01*
X168438608Y-107947050D01*
X168310339Y-108023931D01*
X168175152Y-108087870D01*
X168034348Y-108138250D01*
X167889285Y-108174587D01*
X167741358Y-108196530D01*
X167591993Y-108203868D01*
X158988007Y-108203868D01*
X158838642Y-108196530D01*
X158690715Y-108174587D01*
X158545652Y-108138250D01*
X158404848Y-108087870D01*
X158269661Y-108023931D01*
X158141392Y-107947050D01*
X158021276Y-107857966D01*
X157910470Y-107757537D01*
X157810042Y-107646731D01*
X157791246Y-107621388D01*
X159500637Y-107621388D01*
X159754637Y-107665838D01*
X159933231Y-107684887D01*
X160132462Y-107691238D01*
X160391225Y-107665838D01*
X160413689Y-107656313D01*
X161030987Y-107656313D01*
X162224787Y-107656313D01*
X162224787Y-107332463D01*
X161812037Y-107332463D01*
X161812037Y-106233912D01*
X162015237Y-106346625D01*
X162208912Y-106424412D01*
X162311010Y-106164062D01*
X162532762Y-106164062D01*
X162601223Y-106385023D01*
X162673256Y-106597053D01*
X162748861Y-106800154D01*
X162828037Y-106994325D01*
X162933871Y-107236507D01*
X163035471Y-107457169D01*
X163132837Y-107656313D01*
X163459863Y-107656313D01*
X163555642Y-107457169D01*
X163652479Y-107236507D01*
X163750375Y-106994325D01*
X163789130Y-106891138D01*
X164186938Y-106891138D01*
X164188525Y-106970513D01*
X164193288Y-107037188D01*
X165161663Y-107037188D01*
X165131500Y-107167759D01*
X165041013Y-107267375D01*
X164902900Y-107330478D01*
X164729863Y-107351513D01*
X164506025Y-107326113D01*
X164326638Y-107275313D01*
X164272663Y-107608688D01*
X164488563Y-107667425D01*
X164745738Y-107691238D01*
X164926316Y-107678934D01*
X165024828Y-107656313D01*
X165698238Y-107656313D01*
X166107813Y-107656313D01*
X166186791Y-107469384D01*
X166277675Y-107289600D01*
X166378084Y-107112197D01*
X166485638Y-106932412D01*
X166688838Y-106932412D01*
X166688838Y-107656313D01*
X167079363Y-107656313D01*
X167079363Y-105719562D01*
X166953950Y-105695750D01*
X166815838Y-105679875D01*
X166682488Y-105671937D01*
X166571363Y-105668762D01*
X166411025Y-105678287D01*
X166266563Y-105706862D01*
X166139563Y-105755281D01*
X166031613Y-105824337D01*
X165880800Y-106025950D01*
X165841509Y-106158903D01*
X165828413Y-106313287D01*
X165845875Y-106476800D01*
X165898263Y-106624437D01*
X165991131Y-106747469D01*
X166130038Y-106837163D01*
X166015738Y-107019725D01*
X165898263Y-107229275D01*
X165788725Y-107448350D01*
X165698238Y-107656313D01*
X165024828Y-107656313D01*
X165087050Y-107642025D01*
X165226750Y-107580906D01*
X165344225Y-107495975D01*
X165438284Y-107387628D01*
X165507738Y-107256263D01*
X165550600Y-107101481D01*
X165564888Y-106922888D01*
X165549806Y-106737944D01*
X165504563Y-106576812D01*
X165434713Y-106439891D01*
X165345813Y-106327575D01*
X165240244Y-106239866D01*
X165120388Y-106176762D01*
X164991800Y-106138662D01*
X164860038Y-106125962D01*
X164657543Y-106147658D01*
X164490326Y-106212746D01*
X164358388Y-106321225D01*
X164263138Y-106471332D01*
X164205988Y-106661303D01*
X164186938Y-106891138D01*
X163789130Y-106891138D01*
X163823301Y-106800154D01*
X163894441Y-106597053D01*
X163963795Y-106385023D01*
X164031363Y-106164062D01*
X163621788Y-106164062D01*
X163590434Y-106288681D01*
X163553525Y-106421237D01*
X163512647Y-106558159D01*
X163469388Y-106695875D01*
X163424541Y-106832003D01*
X163378900Y-106964163D01*
X163291588Y-107202288D01*
X163199512Y-106964163D01*
X163149109Y-106832003D01*
X163099500Y-106695875D01*
X163051081Y-106558159D01*
X163004250Y-106421237D01*
X162962578Y-106288681D01*
X162929637Y-106164062D01*
X162532762Y-106164062D01*
X162311010Y-106164062D01*
X162335912Y-106100562D01*
X162170812Y-106027537D01*
X161993012Y-105929112D01*
X161824737Y-105814812D01*
X161688212Y-105690987D01*
X161421512Y-105690987D01*
X161421512Y-107332463D01*
X161030987Y-107332463D01*
X161030987Y-107656313D01*
X160413689Y-107656313D01*
X160589662Y-107581700D01*
X160716662Y-107429300D01*
X160761112Y-107199113D01*
X160710312Y-106980038D01*
X160573787Y-106837163D01*
X160376937Y-106759375D01*
X160145162Y-106735563D01*
X160001494Y-106741913D01*
X159875287Y-106760963D01*
X159875287Y-106713338D01*
X159945137Y-106527600D01*
X160040387Y-106471641D01*
X160186437Y-106452987D01*
X160400750Y-106468862D01*
X160567437Y-106506962D01*
X160621412Y-106192637D01*
X160415037Y-106146600D01*
X160279306Y-106131122D01*
X160138812Y-106125962D01*
X159970141Y-106136678D01*
X159832425Y-106168825D01*
X159637162Y-106289475D01*
X159532387Y-106479975D01*
X159500637Y-106732388D01*
X159500637Y-107621388D01*
X157791246Y-107621388D01*
X157720958Y-107526616D01*
X157644076Y-107398346D01*
X157580137Y-107263159D01*
X157529757Y-107122355D01*
X157493420Y-106977292D01*
X157471477Y-106829365D01*
X157464140Y-106680000D01*
X157471477Y-106530635D01*
X157493420Y-106382708D01*
X157529757Y-106237645D01*
X157580137Y-106096841D01*
X157644076Y-105961654D01*
X157720958Y-105833384D01*
X157810042Y-105713269D01*
X157910470Y-105602463D01*
X158021276Y-105502034D01*
X158141392Y-105412950D01*
X158269661Y-105336069D01*
X158404848Y-105272130D01*
X158545652Y-105221750D01*
X158690715Y-105185413D01*
X158838642Y-105163470D01*
X158988007Y-105156132D01*
X167591993Y-105156132D01*
X167741358Y-105163470D01*
G37*
G36*
X166625338Y-106010075D02*
G01*
X166688838Y-106018012D01*
X166688838Y-106608562D01*
X166603113Y-106608562D01*
X166430869Y-106589116D01*
X166314188Y-106530775D01*
X166225288Y-106310112D01*
X166249100Y-106175175D01*
X166320538Y-106081512D01*
X166430869Y-106026744D01*
X166571363Y-106008487D01*
X166625338Y-106010075D01*
G37*
G36*
X164985450Y-106478387D02*
G01*
X165077525Y-106548237D01*
X165134675Y-106649837D01*
X165161663Y-106767313D01*
X164564763Y-106767313D01*
X164580638Y-106651425D01*
X164631438Y-106551412D01*
X164720338Y-106479975D01*
X164853688Y-106452987D01*
X164985450Y-106478387D01*
G37*
G36*
X160183262Y-107016550D02*
G01*
X160283275Y-107043538D01*
X160351537Y-107097513D01*
X160376937Y-107189588D01*
X160300737Y-107334050D01*
X160103887Y-107376913D01*
X159980062Y-107375325D01*
X159875287Y-107367388D01*
X159875287Y-107024488D01*
X159967362Y-107013375D01*
X160065787Y-107008613D01*
X160183262Y-107016550D01*
G37*
%TO.C,G\u002A\u002A\u002A*%
G36*
X160955886Y-136178152D02*
G01*
X160942741Y-136934815D01*
X160962319Y-137467683D01*
X161026695Y-137643137D01*
X161044537Y-137662333D01*
X160988086Y-137754899D01*
X160818513Y-137885311D01*
X160746198Y-137932170D01*
X160566178Y-138057774D01*
X160487661Y-138127484D01*
X160480025Y-138145194D01*
X160383020Y-138074650D01*
X160274574Y-137753080D01*
X160223200Y-137375338D01*
X160241103Y-137092785D01*
X160318450Y-137264422D01*
X160348659Y-137358648D01*
X160502014Y-137584545D01*
X160639709Y-137507533D01*
X160699450Y-137146839D01*
X160670766Y-136857012D01*
X160540700Y-136838195D01*
X160440293Y-136866211D01*
X160381950Y-136588889D01*
X160411976Y-136357303D01*
X160540700Y-136191977D01*
X160633276Y-136113405D01*
X160699450Y-135768644D01*
X160695240Y-135658547D01*
X160610058Y-135387815D01*
X160461473Y-135397289D01*
X160310746Y-135698088D01*
X160293933Y-135754255D01*
X160231420Y-135862248D01*
X160236054Y-135486422D01*
X160275410Y-135160755D01*
X160393834Y-134942647D01*
X160629355Y-134837596D01*
X160994394Y-134753215D01*
X160955886Y-136178152D01*
G37*
D11*
X160955886Y-136178152D02*
X160942741Y-136934815D01*
X160962319Y-137467683D01*
X161026695Y-137643137D01*
X161044537Y-137662333D01*
X160988086Y-137754899D01*
X160818513Y-137885311D01*
X160746198Y-137932170D01*
X160566178Y-138057774D01*
X160487661Y-138127484D01*
X160480025Y-138145194D01*
X160383020Y-138074650D01*
X160274574Y-137753080D01*
X160223200Y-137375338D01*
X160241103Y-137092785D01*
X160318450Y-137264422D01*
X160348659Y-137358648D01*
X160502014Y-137584545D01*
X160639709Y-137507533D01*
X160699450Y-137146839D01*
X160670766Y-136857012D01*
X160540700Y-136838195D01*
X160440293Y-136866211D01*
X160381950Y-136588889D01*
X160411976Y-136357303D01*
X160540700Y-136191977D01*
X160633276Y-136113405D01*
X160699450Y-135768644D01*
X160695240Y-135658547D01*
X160610058Y-135387815D01*
X160461473Y-135397289D01*
X160310746Y-135698088D01*
X160293933Y-135754255D01*
X160231420Y-135862248D01*
X160236054Y-135486422D01*
X160275410Y-135160755D01*
X160393834Y-134942647D01*
X160629355Y-134837596D01*
X160994394Y-134753215D01*
X160955886Y-136178152D01*
G36*
X163318887Y-137603499D02*
G01*
X163340756Y-137756776D01*
X163353268Y-138031448D01*
X163270777Y-138145130D01*
X163061467Y-138167533D01*
X162951969Y-138153527D01*
X162635955Y-137892594D01*
X162436069Y-137327746D01*
X162366325Y-136492753D01*
X162366347Y-136474200D01*
X162723513Y-136474200D01*
X162724404Y-136596634D01*
X162768997Y-137254087D01*
X162855608Y-137578394D01*
X162949076Y-137508147D01*
X163014237Y-136981936D01*
X163029807Y-136134840D01*
X162975553Y-135549995D01*
X162855727Y-135403620D01*
X162847988Y-135409612D01*
X162752926Y-135718869D01*
X162723513Y-136474200D01*
X162366347Y-136474200D01*
X162366354Y-136468327D01*
X162416916Y-135677742D01*
X162578264Y-135168862D01*
X162871713Y-134873395D01*
X162994582Y-134819418D01*
X163222727Y-134842961D01*
X163348514Y-135051083D01*
X163345710Y-135413873D01*
X163300955Y-135743054D01*
X163283954Y-136134840D01*
X163259101Y-136707577D01*
X163318887Y-137603499D01*
G37*
X163318887Y-137603499D02*
X163340756Y-137756776D01*
X163353268Y-138031448D01*
X163270777Y-138145130D01*
X163061467Y-138167533D01*
X162951969Y-138153527D01*
X162635955Y-137892594D01*
X162436069Y-137327746D01*
X162366325Y-136492753D01*
X162366347Y-136474200D01*
X162723513Y-136474200D01*
X162724404Y-136596634D01*
X162768997Y-137254087D01*
X162855608Y-137578394D01*
X162949076Y-137508147D01*
X163014237Y-136981936D01*
X163029807Y-136134840D01*
X162975553Y-135549995D01*
X162855727Y-135403620D01*
X162847988Y-135409612D01*
X162752926Y-135718869D01*
X162723513Y-136474200D01*
X162366347Y-136474200D01*
X162366354Y-136468327D01*
X162416916Y-135677742D01*
X162578264Y-135168862D01*
X162871713Y-134873395D01*
X162994582Y-134819418D01*
X163222727Y-134842961D01*
X163348514Y-135051083D01*
X163345710Y-135413873D01*
X163300955Y-135743054D01*
X163283954Y-136134840D01*
X163259101Y-136707577D01*
X163318887Y-137603499D01*
G36*
X152856791Y-137378944D02*
G01*
X152920700Y-137767718D01*
X152907411Y-137980027D01*
X152826443Y-138102857D01*
X152721961Y-137823879D01*
X152708100Y-137485378D01*
X152795023Y-137320866D01*
X152856791Y-137378944D01*
G37*
X152856791Y-137378944D02*
X152920700Y-137767718D01*
X152907411Y-137980027D01*
X152826443Y-138102857D01*
X152721961Y-137823879D01*
X152708100Y-137485378D01*
X152795023Y-137320866D01*
X152856791Y-137378944D01*
G36*
X158532346Y-134783613D02*
G01*
X158645044Y-134867112D01*
X158677380Y-135188209D01*
X158657486Y-135907055D01*
X158652192Y-136823249D01*
X158714445Y-137459277D01*
X158755397Y-137664038D01*
X158736026Y-137843634D01*
X158583791Y-137885311D01*
X158522556Y-137882802D01*
X158409379Y-137798575D01*
X158372630Y-137474731D01*
X158384114Y-136751112D01*
X158387469Y-136589672D01*
X158374454Y-135754383D01*
X158316961Y-135198890D01*
X158276859Y-134992743D01*
X158302027Y-134821398D01*
X158459678Y-134780866D01*
X158532346Y-134783613D01*
G37*
X158532346Y-134783613D02*
X158645044Y-134867112D01*
X158677380Y-135188209D01*
X158657486Y-135907055D01*
X158652192Y-136823249D01*
X158714445Y-137459277D01*
X158755397Y-137664038D01*
X158736026Y-137843634D01*
X158583791Y-137885311D01*
X158522556Y-137882802D01*
X158409379Y-137798575D01*
X158372630Y-137474731D01*
X158384114Y-136751112D01*
X158387469Y-136589672D01*
X158374454Y-135754383D01*
X158316961Y-135198890D01*
X158276859Y-134992743D01*
X158302027Y-134821398D01*
X158459678Y-134780866D01*
X158532346Y-134783613D01*
G36*
X152087062Y-134809133D02*
G01*
X152303333Y-134969550D01*
X152458044Y-135247940D01*
X152556335Y-135774826D01*
X152602012Y-136576600D01*
X152571518Y-137352906D01*
X152464294Y-137869960D01*
X152457497Y-137883677D01*
X152278309Y-138061346D01*
X152048236Y-138095650D01*
X151990733Y-138076930D01*
X151812257Y-137885628D01*
X151741354Y-137461977D01*
X151727669Y-137137603D01*
X151756170Y-137067125D01*
X151868121Y-137398226D01*
X151953305Y-137610435D01*
X152130564Y-137705625D01*
X152272479Y-137386153D01*
X152347828Y-136753652D01*
X152325388Y-135909755D01*
X152275482Y-135632289D01*
X152129997Y-135370307D01*
X151968211Y-135381333D01*
X151861795Y-135698088D01*
X151817713Y-135887549D01*
X151741356Y-135641008D01*
X151705880Y-135399403D01*
X151700310Y-135006008D01*
X151724060Y-134923386D01*
X151872786Y-134786981D01*
X152087062Y-134809133D01*
G37*
X152087062Y-134809133D02*
X152303333Y-134969550D01*
X152458044Y-135247940D01*
X152556335Y-135774826D01*
X152602012Y-136576600D01*
X152571518Y-137352906D01*
X152464294Y-137869960D01*
X152457497Y-137883677D01*
X152278309Y-138061346D01*
X152048236Y-138095650D01*
X151990733Y-138076930D01*
X151812257Y-137885628D01*
X151741354Y-137461977D01*
X151727669Y-137137603D01*
X151756170Y-137067125D01*
X151868121Y-137398226D01*
X151953305Y-137610435D01*
X152130564Y-137705625D01*
X152272479Y-137386153D01*
X152347828Y-136753652D01*
X152325388Y-135909755D01*
X152275482Y-135632289D01*
X152129997Y-135370307D01*
X151968211Y-135381333D01*
X151861795Y-135698088D01*
X151817713Y-135887549D01*
X151741356Y-135641008D01*
X151705880Y-135399403D01*
X151700310Y-135006008D01*
X151724060Y-134923386D01*
X151872786Y-134786981D01*
X152087062Y-134809133D01*
G36*
X155659841Y-134787359D02*
G01*
X155838982Y-134850969D01*
X155918756Y-135023691D01*
X155936950Y-135355240D01*
X155935627Y-135518342D01*
X155898579Y-135780451D01*
X155778200Y-135627533D01*
X155751447Y-135577954D01*
X155663388Y-135491902D01*
X155626753Y-135742590D01*
X155619450Y-136443576D01*
X155621955Y-136780813D01*
X155660995Y-137423486D01*
X155758357Y-137690768D01*
X155784252Y-137736207D01*
X155720324Y-137800533D01*
X155540075Y-137830292D01*
X155426499Y-137825571D01*
X155291490Y-137779239D01*
X155282107Y-137698400D01*
X155300808Y-137652964D01*
X155358758Y-137183515D01*
X155381325Y-136394237D01*
X155375677Y-135799644D01*
X155347030Y-135473030D01*
X155286075Y-135571088D01*
X155200254Y-135819791D01*
X155099363Y-135836655D01*
X155063825Y-135345311D01*
X155068482Y-135147288D01*
X155116671Y-134911292D01*
X155248099Y-134805366D01*
X155500388Y-134780866D01*
X155659841Y-134787359D01*
G37*
X155659841Y-134787359D02*
X155838982Y-134850969D01*
X155918756Y-135023691D01*
X155936950Y-135355240D01*
X155935627Y-135518342D01*
X155898579Y-135780451D01*
X155778200Y-135627533D01*
X155751447Y-135577954D01*
X155663388Y-135491902D01*
X155626753Y-135742590D01*
X155619450Y-136443576D01*
X155621955Y-136780813D01*
X155660995Y-137423486D01*
X155758357Y-137690768D01*
X155784252Y-137736207D01*
X155720324Y-137800533D01*
X155540075Y-137830292D01*
X155426499Y-137825571D01*
X155291490Y-137779239D01*
X155282107Y-137698400D01*
X155300808Y-137652964D01*
X155358758Y-137183515D01*
X155381325Y-136394237D01*
X155375677Y-135799644D01*
X155347030Y-135473030D01*
X155286075Y-135571088D01*
X155200254Y-135819791D01*
X155099363Y-135836655D01*
X155063825Y-135345311D01*
X155068482Y-135147288D01*
X155116671Y-134911292D01*
X155248099Y-134805366D01*
X155500388Y-134780866D01*
X155659841Y-134787359D01*
G36*
X154834296Y-137627949D02*
G01*
X154856729Y-137686234D01*
X154846671Y-137832255D01*
X154686507Y-137880989D01*
X154641437Y-137889088D01*
X154386860Y-138085942D01*
X154130882Y-138462464D01*
X153829374Y-138850482D01*
X153502810Y-138807397D01*
X153220071Y-138250308D01*
X153191765Y-138151172D01*
X153099791Y-137470558D01*
X153151014Y-136791220D01*
X153337419Y-136249777D01*
X153467540Y-135970094D01*
X153548614Y-135636520D01*
X153524506Y-135440508D01*
X153387559Y-135497019D01*
X153267850Y-135558157D01*
X153254774Y-135304371D01*
X153301104Y-135078868D01*
X153455917Y-134862997D01*
X153641778Y-134885412D01*
X153784788Y-135165479D01*
X153804010Y-135249145D01*
X153840976Y-135488626D01*
X153815470Y-135734185D01*
X153706060Y-136097048D01*
X153491312Y-136688437D01*
X153376015Y-137117610D01*
X153361161Y-137678551D01*
X153367277Y-137728345D01*
X153500782Y-138174537D01*
X153707672Y-138411505D01*
X153912711Y-138347938D01*
X153977239Y-138150863D01*
X154026774Y-137611972D01*
X154014486Y-137091561D01*
X154288266Y-137091561D01*
X154366728Y-137463053D01*
X154461932Y-137512335D01*
X154508200Y-137203274D01*
X154491866Y-136983654D01*
X154382523Y-136756422D01*
X154322812Y-136803672D01*
X154288266Y-137091561D01*
X154014486Y-137091561D01*
X154013038Y-137030243D01*
X153932732Y-136680512D01*
X153918640Y-136632550D01*
X153990353Y-136497088D01*
X154170857Y-136349965D01*
X154224716Y-136313314D01*
X154433114Y-136063395D01*
X154508200Y-135743837D01*
X154503548Y-135633883D01*
X154416970Y-135382085D01*
X154268220Y-135401046D01*
X154119496Y-135698088D01*
X154102683Y-135754255D01*
X154040170Y-135862248D01*
X154044804Y-135486422D01*
X154084887Y-135157883D01*
X154203902Y-134941783D01*
X154440080Y-134837309D01*
X154807095Y-134752641D01*
X154765462Y-136065936D01*
X154754957Y-136480007D01*
X154764665Y-137203274D01*
X154765242Y-137246292D01*
X154834296Y-137627949D01*
G37*
X154834296Y-137627949D02*
X154856729Y-137686234D01*
X154846671Y-137832255D01*
X154686507Y-137880989D01*
X154641437Y-137889088D01*
X154386860Y-138085942D01*
X154130882Y-138462464D01*
X153829374Y-138850482D01*
X153502810Y-138807397D01*
X153220071Y-138250308D01*
X153191765Y-138151172D01*
X153099791Y-137470558D01*
X153151014Y-136791220D01*
X153337419Y-136249777D01*
X153467540Y-135970094D01*
X153548614Y-135636520D01*
X153524506Y-135440508D01*
X153387559Y-135497019D01*
X153267850Y-135558157D01*
X153254774Y-135304371D01*
X153301104Y-135078868D01*
X153455917Y-134862997D01*
X153641778Y-134885412D01*
X153784788Y-135165479D01*
X153804010Y-135249145D01*
X153840976Y-135488626D01*
X153815470Y-135734185D01*
X153706060Y-136097048D01*
X153491312Y-136688437D01*
X153376015Y-137117610D01*
X153361161Y-137678551D01*
X153367277Y-137728345D01*
X153500782Y-138174537D01*
X153707672Y-138411505D01*
X153912711Y-138347938D01*
X153977239Y-138150863D01*
X154026774Y-137611972D01*
X154014486Y-137091561D01*
X154288266Y-137091561D01*
X154366728Y-137463053D01*
X154461932Y-137512335D01*
X154508200Y-137203274D01*
X154491866Y-136983654D01*
X154382523Y-136756422D01*
X154322812Y-136803672D01*
X154288266Y-137091561D01*
X154014486Y-137091561D01*
X154013038Y-137030243D01*
X153932732Y-136680512D01*
X153918640Y-136632550D01*
X153990353Y-136497088D01*
X154170857Y-136349965D01*
X154224716Y-136313314D01*
X154433114Y-136063395D01*
X154508200Y-135743837D01*
X154503548Y-135633883D01*
X154416970Y-135382085D01*
X154268220Y-135401046D01*
X154119496Y-135698088D01*
X154102683Y-135754255D01*
X154040170Y-135862248D01*
X154044804Y-135486422D01*
X154084887Y-135157883D01*
X154203902Y-134941783D01*
X154440080Y-134837309D01*
X154807095Y-134752641D01*
X154765462Y-136065936D01*
X154754957Y-136480007D01*
X154764665Y-137203274D01*
X154765242Y-137246292D01*
X154834296Y-137627949D01*
G36*
X156842493Y-136926220D02*
G01*
X156963238Y-137503674D01*
X157043951Y-137715977D01*
X157136061Y-137677224D01*
X157255408Y-137525340D01*
X157316234Y-137168598D01*
X157324430Y-136786088D01*
X157265195Y-136163632D01*
X157241469Y-136017404D01*
X157230214Y-135815813D01*
X157459099Y-135815813D01*
X157473090Y-135994267D01*
X157552869Y-136357695D01*
X157641380Y-136347047D01*
X157683200Y-135933274D01*
X157661365Y-135582711D01*
X157558318Y-135345311D01*
X157493292Y-135413023D01*
X157459099Y-135815813D01*
X157230214Y-135815813D01*
X157216926Y-135577792D01*
X157321340Y-135187011D01*
X157495812Y-134914266D01*
X157718111Y-134793080D01*
X157921388Y-134838939D01*
X158040388Y-135063088D01*
X158052791Y-135172411D01*
X158005385Y-135345311D01*
X157954017Y-135530202D01*
X157932712Y-135933274D01*
X157925347Y-136072635D01*
X157927812Y-136759825D01*
X157960011Y-137374253D01*
X158020544Y-137698400D01*
X158041328Y-137797919D01*
X157941169Y-137863030D01*
X157783960Y-137857919D01*
X157676347Y-137724362D01*
X157667375Y-137391422D01*
X157669113Y-137363567D01*
X157663981Y-137071201D01*
X157582023Y-137193169D01*
X157412604Y-137744200D01*
X157244609Y-138194071D01*
X156943086Y-138449755D01*
X156798619Y-138424136D01*
X156698977Y-138248967D01*
X156681509Y-137814755D01*
X156682336Y-137721133D01*
X156642294Y-137292206D01*
X156492575Y-137179755D01*
X156363139Y-137262611D01*
X156294138Y-137603088D01*
X156294111Y-137612634D01*
X156242449Y-137950236D01*
X156146265Y-138012247D01*
X156085927Y-137744200D01*
X156085460Y-137641189D01*
X156120974Y-137074083D01*
X156175531Y-136549551D01*
X156451393Y-136549551D01*
X156495067Y-136756422D01*
X156530411Y-136708731D01*
X156571950Y-136333088D01*
X156568503Y-136140213D01*
X156540755Y-135909755D01*
X156520211Y-135961750D01*
X156463871Y-136333088D01*
X156451393Y-136549551D01*
X156175531Y-136549551D01*
X156197722Y-136336195D01*
X156293247Y-135604555D01*
X156385089Y-135056197D01*
X156450789Y-134868150D01*
X156502479Y-135026471D01*
X156615062Y-135571483D01*
X156743066Y-136333088D01*
X156746295Y-136352304D01*
X156842493Y-136926220D01*
G37*
X156842493Y-136926220D02*
X156963238Y-137503674D01*
X157043951Y-137715977D01*
X157136061Y-137677224D01*
X157255408Y-137525340D01*
X157316234Y-137168598D01*
X157324430Y-136786088D01*
X157265195Y-136163632D01*
X157241469Y-136017404D01*
X157230214Y-135815813D01*
X157459099Y-135815813D01*
X157473090Y-135994267D01*
X157552869Y-136357695D01*
X157641380Y-136347047D01*
X157683200Y-135933274D01*
X157661365Y-135582711D01*
X157558318Y-135345311D01*
X157493292Y-135413023D01*
X157459099Y-135815813D01*
X157230214Y-135815813D01*
X157216926Y-135577792D01*
X157321340Y-135187011D01*
X157495812Y-134914266D01*
X157718111Y-134793080D01*
X157921388Y-134838939D01*
X158040388Y-135063088D01*
X158052791Y-135172411D01*
X158005385Y-135345311D01*
X157954017Y-135530202D01*
X157932712Y-135933274D01*
X157925347Y-136072635D01*
X157927812Y-136759825D01*
X157960011Y-137374253D01*
X158020544Y-137698400D01*
X158041328Y-137797919D01*
X157941169Y-137863030D01*
X157783960Y-137857919D01*
X157676347Y-137724362D01*
X157667375Y-137391422D01*
X157669113Y-137363567D01*
X157663981Y-137071201D01*
X157582023Y-137193169D01*
X157412604Y-137744200D01*
X157244609Y-138194071D01*
X156943086Y-138449755D01*
X156798619Y-138424136D01*
X156698977Y-138248967D01*
X156681509Y-137814755D01*
X156682336Y-137721133D01*
X156642294Y-137292206D01*
X156492575Y-137179755D01*
X156363139Y-137262611D01*
X156294138Y-137603088D01*
X156294111Y-137612634D01*
X156242449Y-137950236D01*
X156146265Y-138012247D01*
X156085927Y-137744200D01*
X156085460Y-137641189D01*
X156120974Y-137074083D01*
X156175531Y-136549551D01*
X156451393Y-136549551D01*
X156495067Y-136756422D01*
X156530411Y-136708731D01*
X156571950Y-136333088D01*
X156568503Y-136140213D01*
X156540755Y-135909755D01*
X156520211Y-135961750D01*
X156463871Y-136333088D01*
X156451393Y-136549551D01*
X156175531Y-136549551D01*
X156197722Y-136336195D01*
X156293247Y-135604555D01*
X156385089Y-135056197D01*
X156450789Y-134868150D01*
X156502479Y-135026471D01*
X156615062Y-135571483D01*
X156743066Y-136333088D01*
X156746295Y-136352304D01*
X156842493Y-136926220D01*
G36*
X159908920Y-136391411D02*
G01*
X159944681Y-137165583D01*
X160024763Y-137501029D01*
X160080658Y-137606984D01*
X160143825Y-137915505D01*
X160108912Y-138026674D01*
X159967402Y-138131575D01*
X159774585Y-138165821D01*
X159593241Y-138122031D01*
X159486147Y-137992824D01*
X159479757Y-137808367D01*
X159553022Y-137405627D01*
X159631876Y-136971982D01*
X159577149Y-136619018D01*
X159371113Y-136341664D01*
X159236976Y-136185089D01*
X159035079Y-135725393D01*
X158963421Y-135273902D01*
X159285489Y-135273902D01*
X159285661Y-135277062D01*
X159359059Y-135647709D01*
X159488834Y-135854451D01*
X159612198Y-135847384D01*
X159666360Y-135576606D01*
X159659174Y-135381117D01*
X159594996Y-134810297D01*
X159560675Y-134671921D01*
X159434011Y-134563761D01*
X159319167Y-134799045D01*
X159285489Y-135273902D01*
X158963421Y-135273902D01*
X158947374Y-135172792D01*
X158984426Y-134632426D01*
X159156805Y-134209436D01*
X159196726Y-134161633D01*
X159407345Y-134014605D01*
X159656240Y-133946916D01*
X159894537Y-133958220D01*
X160073357Y-134048170D01*
X160143825Y-134216422D01*
X160130393Y-134346252D01*
X160024763Y-134498644D01*
X159961956Y-134591559D01*
X159918298Y-135028114D01*
X159910538Y-135576606D01*
X159905700Y-135918613D01*
X159908920Y-136391411D01*
G37*
X159908920Y-136391411D02*
X159944681Y-137165583D01*
X160024763Y-137501029D01*
X160080658Y-137606984D01*
X160143825Y-137915505D01*
X160108912Y-138026674D01*
X159967402Y-138131575D01*
X159774585Y-138165821D01*
X159593241Y-138122031D01*
X159486147Y-137992824D01*
X159479757Y-137808367D01*
X159553022Y-137405627D01*
X159631876Y-136971982D01*
X159577149Y-136619018D01*
X159371113Y-136341664D01*
X159236976Y-136185089D01*
X159035079Y-135725393D01*
X158963421Y-135273902D01*
X159285489Y-135273902D01*
X159285661Y-135277062D01*
X159359059Y-135647709D01*
X159488834Y-135854451D01*
X159612198Y-135847384D01*
X159666360Y-135576606D01*
X159659174Y-135381117D01*
X159594996Y-134810297D01*
X159560675Y-134671921D01*
X159434011Y-134563761D01*
X159319167Y-134799045D01*
X159285489Y-135273902D01*
X158963421Y-135273902D01*
X158947374Y-135172792D01*
X158984426Y-134632426D01*
X159156805Y-134209436D01*
X159196726Y-134161633D01*
X159407345Y-134014605D01*
X159656240Y-133946916D01*
X159894537Y-133958220D01*
X160073357Y-134048170D01*
X160143825Y-134216422D01*
X160130393Y-134346252D01*
X160024763Y-134498644D01*
X159961956Y-134591559D01*
X159918298Y-135028114D01*
X159910538Y-135576606D01*
X159905700Y-135918613D01*
X159908920Y-136391411D01*
G36*
X150392442Y-134881156D02*
G01*
X150417492Y-135226592D01*
X150401935Y-135999760D01*
X150396127Y-136215535D01*
X150399914Y-137032205D01*
X150450918Y-137441855D01*
X150481331Y-137524819D01*
X150539450Y-137900196D01*
X150499057Y-138044891D01*
X150360857Y-138067083D01*
X150252850Y-137948575D01*
X150203056Y-137716076D01*
X150220336Y-137511617D01*
X150269835Y-136946820D01*
X150294471Y-136571035D01*
X150277345Y-136285334D01*
X150213697Y-136429556D01*
X150135169Y-136992879D01*
X150099769Y-137327330D01*
X150017696Y-137803288D01*
X149936737Y-137728584D01*
X149841804Y-137109200D01*
X149748511Y-136333088D01*
X149784809Y-137250311D01*
X149797847Y-137757006D01*
X149763027Y-138092423D01*
X149644497Y-138167590D01*
X149568907Y-138146192D01*
X149502388Y-137973324D01*
X149473913Y-137509981D01*
X149467888Y-136619443D01*
X149478911Y-135889152D01*
X149535491Y-135125166D01*
X149628763Y-134857512D01*
X149745885Y-135108880D01*
X149874011Y-135901963D01*
X149958242Y-136599727D01*
X150070857Y-135764303D01*
X150074412Y-135738347D01*
X150190766Y-135138916D01*
X150312478Y-134840545D01*
X150317068Y-134837526D01*
X150392442Y-134881156D01*
G37*
X150392442Y-134881156D02*
X150417492Y-135226592D01*
X150401935Y-135999760D01*
X150396127Y-136215535D01*
X150399914Y-137032205D01*
X150450918Y-137441855D01*
X150481331Y-137524819D01*
X150539450Y-137900196D01*
X150499057Y-138044891D01*
X150360857Y-138067083D01*
X150252850Y-137948575D01*
X150203056Y-137716076D01*
X150220336Y-137511617D01*
X150269835Y-136946820D01*
X150294471Y-136571035D01*
X150277345Y-136285334D01*
X150213697Y-136429556D01*
X150135169Y-136992879D01*
X150099769Y-137327330D01*
X150017696Y-137803288D01*
X149936737Y-137728584D01*
X149841804Y-137109200D01*
X149748511Y-136333088D01*
X149784809Y-137250311D01*
X149797847Y-137757006D01*
X149763027Y-138092423D01*
X149644497Y-138167590D01*
X149568907Y-138146192D01*
X149502388Y-137973324D01*
X149473913Y-137509981D01*
X149467888Y-136619443D01*
X149478911Y-135889152D01*
X149535491Y-135125166D01*
X149628763Y-134857512D01*
X149745885Y-135108880D01*
X149874011Y-135901963D01*
X149958242Y-136599727D01*
X150070857Y-135764303D01*
X150074412Y-135738347D01*
X150190766Y-135138916D01*
X150312478Y-134840545D01*
X150317068Y-134837526D01*
X150392442Y-134881156D01*
G36*
X151393142Y-137814755D02*
G01*
X151368296Y-137912029D01*
X151195851Y-138179181D01*
X150995643Y-138024831D01*
X150808441Y-137512042D01*
X150675013Y-136703879D01*
X150678789Y-136450681D01*
X150976013Y-136450681D01*
X150992472Y-136969481D01*
X151056466Y-137451310D01*
X151142073Y-137566562D01*
X151220373Y-137223749D01*
X151238995Y-137000555D01*
X151245700Y-136305293D01*
X151192465Y-135727621D01*
X151095075Y-135486422D01*
X151089059Y-135486960D01*
X151003152Y-135729468D01*
X150976013Y-136450681D01*
X150678789Y-136450681D01*
X150682521Y-136200412D01*
X150781929Y-135549071D01*
X150934443Y-135007241D01*
X151095075Y-134780866D01*
X151102268Y-134781711D01*
X151252729Y-135013102D01*
X151408205Y-135530767D01*
X151490545Y-136008551D01*
X151500691Y-136305293D01*
X151521142Y-136903437D01*
X151393142Y-137814755D01*
G37*
X151393142Y-137814755D02*
X151368296Y-137912029D01*
X151195851Y-138179181D01*
X150995643Y-138024831D01*
X150808441Y-137512042D01*
X150675013Y-136703879D01*
X150678789Y-136450681D01*
X150976013Y-136450681D01*
X150992472Y-136969481D01*
X151056466Y-137451310D01*
X151142073Y-137566562D01*
X151220373Y-137223749D01*
X151238995Y-137000555D01*
X151245700Y-136305293D01*
X151192465Y-135727621D01*
X151095075Y-135486422D01*
X151089059Y-135486960D01*
X151003152Y-135729468D01*
X150976013Y-136450681D01*
X150678789Y-136450681D01*
X150682521Y-136200412D01*
X150781929Y-135549071D01*
X150934443Y-135007241D01*
X151095075Y-134780866D01*
X151102268Y-134781711D01*
X151252729Y-135013102D01*
X151408205Y-135530767D01*
X151490545Y-136008551D01*
X151500691Y-136305293D01*
X151521142Y-136903437D01*
X151393142Y-137814755D01*
G36*
X164470277Y-137349483D02*
G01*
X164509450Y-137919777D01*
X164507198Y-138008545D01*
X164451299Y-138180889D01*
X164361770Y-138018398D01*
X164294324Y-137603088D01*
X164243406Y-137275954D01*
X164108667Y-137038644D01*
X164015404Y-137144564D01*
X163914138Y-137603088D01*
X163871184Y-137934895D01*
X163794411Y-138167533D01*
X163758341Y-138154821D01*
X163687394Y-137889295D01*
X163707983Y-137248309D01*
X163807235Y-136316432D01*
X164033200Y-136316432D01*
X164034753Y-136458923D01*
X164072248Y-136743948D01*
X164148873Y-136493701D01*
X164159659Y-136391939D01*
X164113870Y-136053711D01*
X164072253Y-136025757D01*
X164033200Y-136316432D01*
X163807235Y-136316432D01*
X163820658Y-136190404D01*
X163920247Y-135419683D01*
X163994272Y-135009800D01*
X164058613Y-134963930D01*
X164139728Y-135199947D01*
X164139910Y-135200597D01*
X164253352Y-135753350D01*
X164350401Y-136391939D01*
X164374192Y-136548493D01*
X164470277Y-137349483D01*
G37*
X164470277Y-137349483D02*
X164509450Y-137919777D01*
X164507198Y-138008545D01*
X164451299Y-138180889D01*
X164361770Y-138018398D01*
X164294324Y-137603088D01*
X164243406Y-137275954D01*
X164108667Y-137038644D01*
X164015404Y-137144564D01*
X163914138Y-137603088D01*
X163871184Y-137934895D01*
X163794411Y-138167533D01*
X163758341Y-138154821D01*
X163687394Y-137889295D01*
X163707983Y-137248309D01*
X163807235Y-136316432D01*
X164033200Y-136316432D01*
X164034753Y-136458923D01*
X164072248Y-136743948D01*
X164148873Y-136493701D01*
X164159659Y-136391939D01*
X164113870Y-136053711D01*
X164072253Y-136025757D01*
X164033200Y-136316432D01*
X163807235Y-136316432D01*
X163820658Y-136190404D01*
X163920247Y-135419683D01*
X163994272Y-135009800D01*
X164058613Y-134963930D01*
X164139728Y-135199947D01*
X164139910Y-135200597D01*
X164253352Y-135753350D01*
X164350401Y-136391939D01*
X164374192Y-136548493D01*
X164470277Y-137349483D01*
G36*
X161835392Y-134821372D02*
G01*
X162044913Y-135055644D01*
X162086730Y-135150821D01*
X162217791Y-135801367D01*
X162249226Y-136655625D01*
X162169680Y-137491862D01*
X162093121Y-137825761D01*
X161943649Y-138096547D01*
X161699061Y-138167533D01*
X161647689Y-138166638D01*
X161451823Y-138109627D01*
X161356694Y-137897852D01*
X161313827Y-137439733D01*
X161322534Y-136825312D01*
X161434415Y-136507139D01*
X161632107Y-136628792D01*
X161679428Y-136703698D01*
X161729425Y-136847480D01*
X161632107Y-136961903D01*
X161544363Y-137089664D01*
X161498497Y-137400129D01*
X161592419Y-137682545D01*
X161593255Y-137683605D01*
X161775552Y-137664154D01*
X161914301Y-137211306D01*
X161969450Y-136455412D01*
X161968826Y-136357339D01*
X161905730Y-135644895D01*
X161758430Y-135374530D01*
X161554332Y-135602547D01*
X161432187Y-135805124D01*
X161344625Y-135712137D01*
X161361841Y-135216371D01*
X161429748Y-134972459D01*
X161609946Y-134798442D01*
X161835392Y-134821372D01*
G37*
X161835392Y-134821372D02*
X162044913Y-135055644D01*
X162086730Y-135150821D01*
X162217791Y-135801367D01*
X162249226Y-136655625D01*
X162169680Y-137491862D01*
X162093121Y-137825761D01*
X161943649Y-138096547D01*
X161699061Y-138167533D01*
X161647689Y-138166638D01*
X161451823Y-138109627D01*
X161356694Y-137897852D01*
X161313827Y-137439733D01*
X161322534Y-136825312D01*
X161434415Y-136507139D01*
X161632107Y-136628792D01*
X161679428Y-136703698D01*
X161729425Y-136847480D01*
X161632107Y-136961903D01*
X161544363Y-137089664D01*
X161498497Y-137400129D01*
X161592419Y-137682545D01*
X161593255Y-137683605D01*
X161775552Y-137664154D01*
X161914301Y-137211306D01*
X161969450Y-136455412D01*
X161968826Y-136357339D01*
X161905730Y-135644895D01*
X161758430Y-135374530D01*
X161554332Y-135602547D01*
X161432187Y-135805124D01*
X161344625Y-135712137D01*
X161361841Y-135216371D01*
X161429748Y-134972459D01*
X161609946Y-134798442D01*
X161835392Y-134821372D01*
G36*
X165779450Y-137603088D02*
G01*
X165798273Y-137610649D01*
X165858825Y-137867503D01*
X165858316Y-137878661D01*
X165776847Y-137983890D01*
X165589763Y-138031637D01*
X165345312Y-138027015D01*
X165091742Y-137975135D01*
X164877301Y-137881109D01*
X164750237Y-137750048D01*
X164717773Y-137628713D01*
X164673699Y-137094655D01*
X164679902Y-136528105D01*
X164948736Y-136528105D01*
X164991286Y-137075751D01*
X165049234Y-137383049D01*
X165127399Y-137580808D01*
X165202727Y-137523700D01*
X165341058Y-137198602D01*
X165392041Y-136753824D01*
X165347027Y-136361054D01*
X165197367Y-136191977D01*
X165037598Y-136249899D01*
X164948736Y-136528105D01*
X164679902Y-136528105D01*
X164680529Y-136470883D01*
X164740124Y-136067241D01*
X164773062Y-135898848D01*
X164774293Y-135395870D01*
X164773088Y-135110731D01*
X165034701Y-135110731D01*
X165039306Y-135441833D01*
X165041228Y-135448577D01*
X165182334Y-135652044D01*
X165320382Y-135496775D01*
X165382575Y-135063088D01*
X165361909Y-134733855D01*
X165273232Y-134498644D01*
X165247271Y-134506658D01*
X165120979Y-134730637D01*
X165034701Y-135110731D01*
X164773088Y-135110731D01*
X164772885Y-135062767D01*
X164855637Y-134531105D01*
X164894545Y-134440818D01*
X165078420Y-134212604D01*
X165323950Y-134054330D01*
X165577322Y-133984173D01*
X165784724Y-134020311D01*
X165892342Y-134180922D01*
X165904302Y-134351418D01*
X165823822Y-134498644D01*
X165817035Y-134499215D01*
X165746027Y-134644324D01*
X165714605Y-135063088D01*
X165710056Y-135123719D01*
X165700075Y-136050866D01*
X165707151Y-136689673D01*
X165709961Y-136753824D01*
X165735982Y-137347915D01*
X165779450Y-137603088D01*
G37*
X165779450Y-137603088D02*
X165798273Y-137610649D01*
X165858825Y-137867503D01*
X165858316Y-137878661D01*
X165776847Y-137983890D01*
X165589763Y-138031637D01*
X165345312Y-138027015D01*
X165091742Y-137975135D01*
X164877301Y-137881109D01*
X164750237Y-137750048D01*
X164717773Y-137628713D01*
X164673699Y-137094655D01*
X164679902Y-136528105D01*
X164948736Y-136528105D01*
X164991286Y-137075751D01*
X165049234Y-137383049D01*
X165127399Y-137580808D01*
X165202727Y-137523700D01*
X165341058Y-137198602D01*
X165392041Y-136753824D01*
X165347027Y-136361054D01*
X165197367Y-136191977D01*
X165037598Y-136249899D01*
X164948736Y-136528105D01*
X164679902Y-136528105D01*
X164680529Y-136470883D01*
X164740124Y-136067241D01*
X164773062Y-135898848D01*
X164774293Y-135395870D01*
X164773088Y-135110731D01*
X165034701Y-135110731D01*
X165039306Y-135441833D01*
X165041228Y-135448577D01*
X165182334Y-135652044D01*
X165320382Y-135496775D01*
X165382575Y-135063088D01*
X165361909Y-134733855D01*
X165273232Y-134498644D01*
X165247271Y-134506658D01*
X165120979Y-134730637D01*
X165034701Y-135110731D01*
X164773088Y-135110731D01*
X164772885Y-135062767D01*
X164855637Y-134531105D01*
X164894545Y-134440818D01*
X165078420Y-134212604D01*
X165323950Y-134054330D01*
X165577322Y-133984173D01*
X165784724Y-134020311D01*
X165892342Y-134180922D01*
X165904302Y-134351418D01*
X165823822Y-134498644D01*
X165817035Y-134499215D01*
X165746027Y-134644324D01*
X165714605Y-135063088D01*
X165710056Y-135123719D01*
X165700075Y-136050866D01*
X165707151Y-136689673D01*
X165709961Y-136753824D01*
X165735982Y-137347915D01*
X165779450Y-137603088D01*
D12*
%TO.C,X1*%
X142303500Y-79489300D02*
X142303500Y-72377300D01*
X137731500Y-71742300D02*
X133413500Y-71742300D01*
X133413500Y-71742300D02*
X133413500Y-72250300D01*
X128968500Y-72377300D02*
X128968500Y-79489300D01*
X133413500Y-72123300D02*
X137731500Y-72123300D01*
X137731500Y-72250300D02*
X137731500Y-71742300D01*
X128968500Y-79489300D02*
X142303500Y-79489300D01*
X142176500Y-72377300D02*
X128968500Y-72377300D01*
X130162300Y-73215500D02*
G75*
G03*
X130162300Y-73215500I-254000J0D01*
G01*
D13*
%TO.C,D4*%
X148320141Y-102326256D02*
X148155082Y-102779752D01*
X148548627Y-105815213D02*
X148499445Y-105950341D01*
X147994586Y-102478065D02*
X148471950Y-102651811D01*
X148443957Y-101911810D02*
X149449053Y-100709888D01*
X149352340Y-99782694D02*
X149187281Y-100236189D01*
X149481609Y-100694707D02*
X149446421Y-102276677D01*
X149446421Y-102276677D02*
X148443957Y-101911810D01*
X148908772Y-100486212D02*
X150006709Y-100885828D01*
X148936502Y-102118112D02*
X148693257Y-102786421D01*
X149481609Y-100694707D02*
X149690104Y-100121871D01*
X146835273Y-105324777D02*
G75*
G03*
X146089755Y-107308059I459327J-1304423D01*
G01*
X147753927Y-107933622D02*
G75*
G03*
X148499445Y-105950341I-459326J1304422D01*
G01*
%TO.C,D1*%
X145098986Y-101422128D02*
X145576350Y-101595874D01*
X146550821Y-101220740D02*
X145548357Y-100855873D01*
X145424541Y-101270319D02*
X145259482Y-101723815D01*
X145548357Y-100855873D02*
X146553453Y-99653951D01*
X146586009Y-99638770D02*
X146794504Y-99065934D01*
X145653027Y-104759276D02*
X145603845Y-104894404D01*
X146586009Y-99638770D02*
X146550821Y-101220740D01*
X146013172Y-99430275D02*
X147111109Y-99829891D01*
X146040902Y-101062175D02*
X145797657Y-101730484D01*
X146456740Y-98726757D02*
X146291681Y-99180252D01*
X143939673Y-104268840D02*
G75*
G03*
X143194155Y-106252122I459327J-1304423D01*
G01*
X144858327Y-106877685D02*
G75*
G03*
X145603845Y-104894404I-459326J1304422D01*
G01*
%TO.C,D6*%
X154105799Y-104419919D02*
X153940740Y-104873415D01*
X155232079Y-104370340D02*
X154229615Y-104005473D01*
X154334285Y-107908876D02*
X154285103Y-108044004D01*
X155267267Y-102788370D02*
X155475762Y-102215534D01*
X154229615Y-104005473D02*
X155234711Y-102803551D01*
X155267267Y-102788370D02*
X155232079Y-104370340D01*
X155137998Y-101876357D02*
X154972939Y-102329852D01*
X154694430Y-102579875D02*
X155792367Y-102979491D01*
X153780244Y-104571728D02*
X154257608Y-104745474D01*
X154722160Y-104211775D02*
X154478915Y-104880084D01*
X152620931Y-107418440D02*
G75*
G03*
X151875413Y-109401722I459327J-1304423D01*
G01*
X153539585Y-110027285D02*
G75*
G03*
X154285103Y-108044004I-459326J1304422D01*
G01*
%TO.C,D5*%
X151438685Y-106867476D02*
X151389503Y-107002604D01*
X152371667Y-101746970D02*
X152336479Y-103328940D01*
X152371667Y-101746970D02*
X152580162Y-101174134D01*
X151826560Y-103170375D02*
X151583315Y-103838684D01*
X151798830Y-101538475D02*
X152896767Y-101938091D01*
X151334015Y-102964073D02*
X152339111Y-101762151D01*
X151210199Y-103378519D02*
X151045140Y-103832015D01*
X152242398Y-100834957D02*
X152077339Y-101288452D01*
X150884644Y-103530328D02*
X151362008Y-103704074D01*
X152336479Y-103328940D02*
X151334015Y-102964073D01*
X149725331Y-106377040D02*
G75*
G03*
X148979813Y-108360322I459327J-1304423D01*
G01*
X150643985Y-108985885D02*
G75*
G03*
X151389503Y-107002604I-459326J1304422D01*
G01*
%TO.C,BT1*%
X158786400Y-130386200D02*
X158786400Y-125636200D01*
X143036400Y-130386200D02*
X158786400Y-130386200D01*
X143036400Y-125636200D02*
X143036400Y-130386200D01*
X140286400Y-126886200D02*
X140286400Y-128886200D01*
X162286400Y-126886200D02*
X162286400Y-128886200D01*
X158786400Y-125636200D02*
X143036400Y-125636200D01*
X158786400Y-127136200D02*
X159536400Y-127136200D01*
X159536400Y-127136200D02*
X159536400Y-128636200D01*
X159536400Y-128636200D02*
X158786400Y-128636200D01*
X158786400Y-125636200D02*
X158786400Y-127136200D01*
X163286400Y-127886200D02*
X161286400Y-127886200D01*
%TO.C,U1*%
X178702900Y-120510300D02*
X179210900Y-120510300D01*
X179210900Y-117563900D02*
X179210900Y-117055900D01*
X174562700Y-117055900D02*
X174562700Y-117563900D01*
X175070700Y-117055900D02*
X174562700Y-117055900D01*
X174562700Y-120535700D02*
X175070700Y-120535700D01*
X179210900Y-117055900D02*
X178702900Y-117055900D01*
X174562700Y-120027700D02*
X174562700Y-120535700D01*
X179210900Y-120510300D02*
X179210900Y-120002300D01*
D14*
X179214300Y-117817900D02*
G75*
G03*
X179214300Y-117817900I-105000J0D01*
G01*
D13*
%TO.C,J1*%
X120660000Y-119363800D02*
X128340000Y-119363800D01*
X118060000Y-116703800D02*
X118060000Y-118033800D01*
X119390000Y-116703800D02*
X118060000Y-116703800D01*
X120660000Y-116703800D02*
X128340000Y-116703800D01*
X128340000Y-116703800D02*
X128340000Y-119363800D01*
X120660000Y-116703800D02*
X120660000Y-119363800D01*
%TO.C,R7*%
X148518200Y-116045064D02*
X148518200Y-114840936D01*
X150338200Y-116045064D02*
X150338200Y-114840936D01*
%TO.C,R5*%
X191203664Y-107954400D02*
X189999536Y-107954400D01*
X191203664Y-109774400D02*
X189999536Y-109774400D01*
%TO.C,R2*%
X189567736Y-93874000D02*
X190771864Y-93874000D01*
X189567736Y-92054000D02*
X190771864Y-92054000D01*
%TO.C,U2*%
X109567200Y-109838000D02*
X102817200Y-109838000D01*
X133567200Y-109838000D02*
X133817200Y-109838000D01*
X109117200Y-109838000D02*
X109117200Y-91838000D01*
X133567200Y-91838000D02*
X133817200Y-91838000D01*
X133817200Y-91838000D02*
X133817200Y-93338000D01*
X102817200Y-91838000D02*
X102817200Y-109838000D01*
X133817200Y-109838000D02*
X133817200Y-108338000D01*
X102817200Y-91838000D02*
X109567200Y-91838000D01*
%TO.C,D3*%
X194057000Y-107754800D02*
X197942000Y-107754800D01*
X194057000Y-110024800D02*
X194057000Y-107754800D01*
X197942000Y-110024800D02*
X194057000Y-110024800D01*
%TO.C,C1*%
X190682378Y-113285200D02*
X190165222Y-113285200D01*
X190682378Y-114705200D02*
X190165222Y-114705200D01*
%TO.C,kibuzzard-6328D1ED*%
G36*
X192178241Y-106309663D02*
G01*
X192162778Y-106413902D01*
X192137173Y-106516122D01*
X192101672Y-106615341D01*
X192056617Y-106710603D01*
X192002442Y-106800989D01*
X191939667Y-106885630D01*
X191868899Y-106963711D01*
X191790819Y-107034479D01*
X191706178Y-107097253D01*
X191615791Y-107151429D01*
X191520530Y-107196484D01*
X191421311Y-107231985D01*
X191319090Y-107257590D01*
X191214852Y-107273052D01*
X191109600Y-107278223D01*
X191004348Y-107273052D01*
X190900110Y-107257590D01*
X190797889Y-107231985D01*
X190698670Y-107196484D01*
X190603409Y-107151429D01*
X190513022Y-107097253D01*
X190428381Y-107034479D01*
X190350301Y-106963711D01*
X190279533Y-106885630D01*
X190216758Y-106800989D01*
X190162583Y-106710603D01*
X190117528Y-106615341D01*
X190082027Y-106516122D01*
X190056422Y-106413902D01*
X190040959Y-106309663D01*
X190035789Y-106204411D01*
X190035789Y-105355231D01*
X190884969Y-105355231D01*
X190895817Y-105456478D01*
X190928360Y-105540087D01*
X190982600Y-105606056D01*
X191057653Y-105653681D01*
X191152639Y-105682256D01*
X191267556Y-105691781D01*
X191307244Y-105690988D01*
X191340581Y-105688606D01*
X191340581Y-105204419D01*
X191405867Y-105219500D01*
X191455675Y-105264744D01*
X191487227Y-105333800D01*
X191497744Y-105420319D01*
X191485044Y-105532238D01*
X191459644Y-105621931D01*
X191626331Y-105648919D01*
X191655700Y-105540969D01*
X191667606Y-105412381D01*
X191661455Y-105322092D01*
X191643000Y-105241725D01*
X191612441Y-105171875D01*
X191569975Y-105113138D01*
X191515802Y-105066108D01*
X191450119Y-105031381D01*
X191372728Y-105009950D01*
X191283431Y-105002806D01*
X191190959Y-105010347D01*
X191110394Y-105032969D01*
X191041933Y-105067894D01*
X190985775Y-105112344D01*
X190941920Y-105165128D01*
X190910369Y-105225056D01*
X190891319Y-105289350D01*
X190884969Y-105355231D01*
X190035789Y-105355231D01*
X190035789Y-104651969D01*
X190889731Y-104651969D01*
X190891319Y-104697213D01*
X190896875Y-104759919D01*
X190906400Y-104827388D01*
X190921481Y-104888506D01*
X191102456Y-104853581D01*
X191092931Y-104808338D01*
X191084200Y-104755156D01*
X191078644Y-104702769D01*
X191077056Y-104659906D01*
X191081025Y-104578944D01*
X191096106Y-104497981D01*
X191650144Y-104497981D01*
X191650144Y-104301131D01*
X190953231Y-104301131D01*
X190927434Y-104379911D01*
X190907194Y-104460675D01*
X190894097Y-104549377D01*
X190889731Y-104651969D01*
X190035789Y-104651969D01*
X190035789Y-103767731D01*
X190884969Y-103767731D01*
X190895817Y-103868978D01*
X190928360Y-103952587D01*
X190982600Y-104018556D01*
X191057653Y-104066181D01*
X191152639Y-104094756D01*
X191267556Y-104104281D01*
X191307244Y-104103488D01*
X191340581Y-104101106D01*
X191340581Y-103616919D01*
X191405867Y-103632000D01*
X191455675Y-103677244D01*
X191487227Y-103746300D01*
X191497744Y-103832819D01*
X191485044Y-103944738D01*
X191459644Y-104034431D01*
X191626331Y-104061419D01*
X191655700Y-103953469D01*
X191667606Y-103824881D01*
X191661455Y-103734592D01*
X191643000Y-103654225D01*
X191612441Y-103584375D01*
X191569975Y-103525638D01*
X191515802Y-103478608D01*
X191450119Y-103443881D01*
X191372728Y-103422450D01*
X191283431Y-103415306D01*
X191190959Y-103422847D01*
X191110394Y-103445469D01*
X191041933Y-103480394D01*
X190985775Y-103524844D01*
X190941920Y-103577628D01*
X190910369Y-103637556D01*
X190891319Y-103701850D01*
X190884969Y-103767731D01*
X190035789Y-103767731D01*
X190035789Y-103294656D01*
X190667481Y-103294656D01*
X191650144Y-103294656D01*
X191650144Y-103099394D01*
X191216756Y-103099394D01*
X191216756Y-102839044D01*
X191650144Y-102839044D01*
X191650144Y-102643781D01*
X190667481Y-102643781D01*
X190667481Y-102839044D01*
X191054831Y-102839044D01*
X191054831Y-103099394D01*
X190667481Y-103099394D01*
X190667481Y-103294656D01*
X190035789Y-103294656D01*
X190035789Y-101381719D01*
X190888144Y-101381719D01*
X190894295Y-101463078D01*
X190912750Y-101529356D01*
X190982600Y-101622225D01*
X191090550Y-101670644D01*
X191156630Y-101681359D01*
X191229456Y-101684931D01*
X191650144Y-101684931D01*
X191650144Y-101489669D01*
X191254856Y-101489669D01*
X191164766Y-101483716D01*
X191104044Y-101465856D01*
X191058006Y-101369019D01*
X191059594Y-101325363D01*
X191064356Y-101280119D01*
X191650144Y-101280119D01*
X191650144Y-101084856D01*
X190927831Y-101084856D01*
X190913941Y-101143395D01*
X190900844Y-101214238D01*
X190891319Y-101294605D01*
X190888144Y-101381719D01*
X190035789Y-101381719D01*
X190035789Y-100649881D01*
X190904019Y-100649881D01*
X191365981Y-100649881D01*
X191465200Y-100674487D01*
X191497744Y-100756244D01*
X191490600Y-100821331D01*
X191461231Y-100907056D01*
X191618394Y-100932456D01*
X191657288Y-100818950D01*
X191667606Y-100721319D01*
X191662050Y-100651270D01*
X191645381Y-100593525D01*
X191581088Y-100510975D01*
X191478694Y-100467319D01*
X191414003Y-100457794D01*
X191340581Y-100454619D01*
X191065944Y-100454619D01*
X191065944Y-100248244D01*
X190904019Y-100248244D01*
X190904019Y-100649881D01*
X190035789Y-100649881D01*
X190035789Y-100518119D01*
X190564294Y-100518119D01*
X190597631Y-100605431D01*
X190689706Y-100641944D01*
X190780194Y-100605431D01*
X190813531Y-100518119D01*
X190780194Y-100431600D01*
X190689706Y-100395881D01*
X190597631Y-100431600D01*
X190564294Y-100518119D01*
X190035789Y-100518119D01*
X190035789Y-98900456D01*
X190548419Y-98900456D01*
X191199294Y-98900456D01*
X191128650Y-98958400D01*
X191051656Y-99015550D01*
X190974662Y-99068731D01*
X190904019Y-99113181D01*
X190904019Y-99348131D01*
X190983394Y-99283044D01*
X191070706Y-99207637D01*
X191156431Y-99129850D01*
X191232631Y-99059206D01*
X191323913Y-99144931D01*
X191378086Y-99190572D01*
X191434244Y-99235419D01*
X191491394Y-99278083D01*
X191548544Y-99317175D01*
X191650144Y-99376706D01*
X191650144Y-99152869D01*
X191560450Y-99102862D01*
X191462025Y-99036981D01*
X191369950Y-98966338D01*
X191297719Y-98900456D01*
X191650144Y-98900456D01*
X191650144Y-98703606D01*
X190581756Y-98703606D01*
X190548419Y-98900456D01*
X190035789Y-98900456D01*
X190035789Y-98306731D01*
X190884969Y-98306731D01*
X190894494Y-98427381D01*
X190926244Y-98536919D01*
X191083406Y-98494056D01*
X191063562Y-98423412D01*
X191054831Y-98324194D01*
X191071500Y-98207512D01*
X191117538Y-98132106D01*
X191188181Y-98090831D01*
X191277081Y-98078131D01*
X191369156Y-98092617D01*
X191439006Y-98136075D01*
X191483059Y-98214458D01*
X191497744Y-98333719D01*
X191491394Y-98429762D01*
X191470756Y-98521044D01*
X191631094Y-98549619D01*
X191657288Y-98449606D01*
X191665027Y-98385709D01*
X191667606Y-98311494D01*
X191660066Y-98205330D01*
X191637444Y-98115437D01*
X191601725Y-98041023D01*
X191554894Y-97981294D01*
X191497744Y-97935852D01*
X191431069Y-97904300D01*
X191356853Y-97885845D01*
X191277081Y-97879694D01*
X191198500Y-97886044D01*
X191124681Y-97905094D01*
X191057808Y-97937241D01*
X191000062Y-97982881D01*
X190952437Y-98042214D01*
X190915925Y-98115437D01*
X190892708Y-98203345D01*
X190884969Y-98306731D01*
X190035789Y-98306731D01*
X190035789Y-97397094D01*
X190884969Y-97397094D01*
X190890327Y-97481430D01*
X190906400Y-97550287D01*
X190966725Y-97647919D01*
X191061975Y-97700306D01*
X191188181Y-97716181D01*
X191632681Y-97716181D01*
X191654906Y-97589181D01*
X191664431Y-97499884D01*
X191667606Y-97400269D01*
X191654906Y-97270887D01*
X191612838Y-97171669D01*
X191536638Y-97108169D01*
X191421544Y-97085944D01*
X191312006Y-97111344D01*
X191240569Y-97179606D01*
X191201675Y-97278031D01*
X191189769Y-97393919D01*
X191192944Y-97465753D01*
X191202469Y-97528856D01*
X191178656Y-97528856D01*
X191085787Y-97493931D01*
X191057808Y-97446306D01*
X191048481Y-97373281D01*
X191056419Y-97266125D01*
X191075469Y-97182781D01*
X190918306Y-97155794D01*
X190895287Y-97258981D01*
X190887548Y-97326847D01*
X190884969Y-97397094D01*
X190035789Y-97397094D01*
X190035789Y-96917669D01*
X190667481Y-96917669D01*
X191321531Y-96917669D01*
X191390984Y-96913105D01*
X191456469Y-96899412D01*
X191567594Y-96839087D01*
X191610258Y-96790867D01*
X191643000Y-96730344D01*
X191663836Y-96656525D01*
X191670781Y-96568419D01*
X191664431Y-96476741D01*
X191645381Y-96401731D01*
X191583469Y-96289019D01*
X191427894Y-96363631D01*
X191477106Y-96451737D01*
X191500919Y-96550956D01*
X191490798Y-96619814D01*
X191460438Y-96673987D01*
X191402692Y-96709111D01*
X191310419Y-96720819D01*
X190829406Y-96720819D01*
X190829406Y-96392206D01*
X190667481Y-96392206D01*
X190667481Y-96917669D01*
X190035789Y-96917669D01*
X190035789Y-95776389D01*
X190040959Y-95671137D01*
X190056422Y-95566898D01*
X190082027Y-95464678D01*
X190117528Y-95365459D01*
X190162583Y-95270197D01*
X190216758Y-95179811D01*
X190279533Y-95095170D01*
X190350301Y-95017089D01*
X190428381Y-94946321D01*
X190513022Y-94883547D01*
X190603409Y-94829371D01*
X190698670Y-94784316D01*
X190797889Y-94748815D01*
X190900110Y-94723210D01*
X191004348Y-94707748D01*
X191109600Y-94702577D01*
X191214852Y-94707748D01*
X191319090Y-94723210D01*
X191421311Y-94748815D01*
X191520530Y-94784316D01*
X191615791Y-94829371D01*
X191706178Y-94883547D01*
X191790819Y-94946321D01*
X191868899Y-95017089D01*
X191939667Y-95095170D01*
X192002442Y-95179811D01*
X192056617Y-95270197D01*
X192101672Y-95365459D01*
X192137173Y-95464678D01*
X192162778Y-95566898D01*
X192178241Y-95671137D01*
X192183411Y-95776389D01*
X192183411Y-106204411D01*
X192178241Y-106309663D01*
G37*
G36*
X191489013Y-97316131D02*
G01*
X191510444Y-97414556D01*
X191509650Y-97476469D01*
X191505681Y-97528856D01*
X191334231Y-97528856D01*
X191328675Y-97482819D01*
X191326294Y-97433606D01*
X191330263Y-97374869D01*
X191343756Y-97324862D01*
X191370744Y-97290731D01*
X191416781Y-97278031D01*
X191489013Y-97316131D01*
G37*
G36*
X191205644Y-103915369D02*
G01*
X191147700Y-103907431D01*
X191097694Y-103882031D01*
X191061975Y-103837581D01*
X191048481Y-103770906D01*
X191061181Y-103705025D01*
X191096106Y-103658988D01*
X191146906Y-103630413D01*
X191205644Y-103616919D01*
X191205644Y-103915369D01*
G37*
G36*
X191205644Y-105502869D02*
G01*
X191147700Y-105494931D01*
X191097694Y-105469531D01*
X191061975Y-105425081D01*
X191048481Y-105358406D01*
X191061181Y-105292525D01*
X191096106Y-105246488D01*
X191146906Y-105217913D01*
X191205644Y-105204419D01*
X191205644Y-105502869D01*
G37*
%TO.C,R8*%
X153183000Y-116045064D02*
X153183000Y-114840936D01*
X151363000Y-116045064D02*
X151363000Y-114840936D01*
D15*
%TO.C,U4*%
X174018400Y-112952200D02*
X174318400Y-112952200D01*
X177243400Y-106402200D02*
X177568400Y-106702200D01*
X174018400Y-106902200D02*
X174018400Y-106402200D01*
X177568400Y-106702200D02*
X177763400Y-106702200D01*
X176768400Y-106402200D02*
X177243400Y-106402200D01*
X177093400Y-112952200D02*
X177568400Y-112952200D01*
X174018400Y-106402200D02*
X174418400Y-106402200D01*
X177568400Y-112952200D02*
X177568400Y-112502200D01*
X174018400Y-112577200D02*
X174018400Y-112952200D01*
D13*
%TO.C,R3*%
X165752864Y-118435800D02*
X164548736Y-118435800D01*
X165752864Y-116615800D02*
X164548736Y-116615800D01*
%TO.C,J5*%
X188045400Y-120873600D02*
X185385400Y-120873600D01*
X188045400Y-118273600D02*
X186715400Y-118273600D01*
X188045400Y-119603600D02*
X188045400Y-118273600D01*
X188045400Y-120873600D02*
X188045400Y-123473600D01*
X185385400Y-120873600D02*
X185385400Y-123473600D01*
X188045400Y-123473600D02*
X185385400Y-123473600D01*
%TO.C,R6*%
X145622600Y-116045064D02*
X145622600Y-114840936D01*
X147442600Y-116045064D02*
X147442600Y-114840936D01*
D10*
%TO.C,J4*%
X195267200Y-96479800D02*
X196667200Y-96479800D01*
X199667200Y-104479800D02*
X199217200Y-104479800D01*
X193092200Y-99554800D02*
X193092200Y-98829800D01*
X199217200Y-96479800D02*
X199217200Y-96779800D01*
X199067200Y-96479800D02*
X199217200Y-96479800D01*
X193517200Y-98829800D02*
X193517200Y-97829800D01*
X196667200Y-104779800D02*
X195267200Y-104779800D01*
X193092200Y-98829800D02*
X193517200Y-98829800D01*
X199217200Y-96779800D02*
X199667200Y-96779800D01*
X199217200Y-104479800D02*
X199217200Y-104779800D01*
X199217200Y-104779800D02*
X199067200Y-104779800D01*
X193517200Y-102429800D02*
X193517200Y-103429800D01*
D15*
%TO.C,U3*%
X178198200Y-97113400D02*
X178198200Y-96813400D01*
X177748200Y-91963400D02*
X177938200Y-92153400D01*
X173998200Y-97113400D02*
X174298200Y-97113400D01*
X177548200Y-91963400D02*
X177748200Y-91963400D01*
X173998200Y-97113400D02*
X173998200Y-96813400D01*
X173998200Y-92213400D02*
X173998200Y-91913400D01*
X177898200Y-97113400D02*
X178198200Y-97113400D01*
X177938200Y-92153400D02*
X179708200Y-92153400D01*
X173998200Y-91913400D02*
X174298200Y-91913400D01*
D16*
X180876000Y-92506800D02*
G75*
G03*
X180876000Y-92506800I-155000J0D01*
G01*
D13*
%TO.C,J3*%
X191262000Y-88071000D02*
X188662000Y-88071000D01*
X188662000Y-88071000D02*
X188662000Y-85411000D01*
X192532000Y-88071000D02*
X193862000Y-88071000D01*
X193862000Y-88071000D02*
X193862000Y-86741000D01*
X191262000Y-85411000D02*
X188662000Y-85411000D01*
X191262000Y-88071000D02*
X191262000Y-85411000D01*
%TO.C,C4*%
X174061622Y-99239000D02*
X174578778Y-99239000D01*
X174061622Y-100659000D02*
X174578778Y-100659000D01*
%TO.C,J2*%
X118179000Y-81127600D02*
G75*
G03*
X118179000Y-81127600I-1200000J0D01*
G01*
X114649800Y-81127600D02*
G75*
G03*
X114649800Y-81127600I-1200000J0D01*
G01*
%TO.C,C2*%
X109961178Y-82066200D02*
X109444022Y-82066200D01*
X109961178Y-80646200D02*
X109444022Y-80646200D01*
%TO.C,R4*%
X115613264Y-124658800D02*
X114409136Y-124658800D01*
X115613264Y-122838800D02*
X114409136Y-122838800D01*
D15*
%TO.C,SW2*%
X113487400Y-87553600D02*
X113987400Y-87553600D01*
X116687400Y-84353600D02*
X116687400Y-84853600D01*
X116687400Y-87553600D02*
X116687400Y-87053600D01*
X116687400Y-84353600D02*
X116287400Y-84353600D01*
X113487400Y-84353600D02*
X113487400Y-84853600D01*
X116687400Y-87553600D02*
X116187400Y-87553600D01*
X113487400Y-84353600D02*
X113987400Y-84353600D01*
X113487400Y-87553600D02*
X113487400Y-87053600D01*
X113487400Y-87053600D02*
X113087400Y-87053600D01*
D13*
%TO.C,R9*%
X141905400Y-99255664D02*
X141905400Y-98051536D01*
X140085400Y-99255664D02*
X140085400Y-98051536D01*
D15*
%TO.C,SW_Reset1*%
X109982200Y-119430600D02*
X109982200Y-118930600D01*
X109982200Y-116230600D02*
X109982200Y-116730600D01*
X109982200Y-119430600D02*
X110482200Y-119430600D01*
X113182200Y-119430600D02*
X112682200Y-119430600D01*
X113182200Y-119430600D02*
X113182200Y-118930600D01*
X109982200Y-118930600D02*
X109582200Y-118930600D01*
X109982200Y-116230600D02*
X110482200Y-116230600D01*
X113182200Y-116230600D02*
X113182200Y-116730600D01*
X113182200Y-116230600D02*
X112782200Y-116230600D01*
D13*
%TO.C,SW1*%
X153548200Y-149489400D02*
X147848200Y-149489400D01*
X152098200Y-149489400D02*
X152098200Y-150779400D01*
X152098200Y-150779400D02*
X151898200Y-150989400D01*
X149298200Y-146639400D02*
X149098200Y-146639400D01*
X154148200Y-147689400D02*
X154148200Y-148479400D01*
X147248200Y-148479400D02*
X147248200Y-147689400D01*
X152298200Y-146639400D02*
X150598200Y-146639400D01*
X151898200Y-150989400D02*
X150998200Y-150989400D01*
X150798200Y-150779400D02*
X150998200Y-150989400D01*
X150798200Y-150779400D02*
X150798200Y-149489400D01*
%TO.C,C3*%
X109986578Y-87501800D02*
X109469422Y-87501800D01*
X109986578Y-86081800D02*
X109469422Y-86081800D01*
%TO.C,C5*%
X180852578Y-99289800D02*
X180335422Y-99289800D01*
X180852578Y-100709800D02*
X180335422Y-100709800D01*
%TO.C,kibuzzard-6328D231*%
G36*
X153531887Y-143583025D02*
G01*
X153578719Y-143656844D01*
X153600944Y-143765587D01*
X153605111Y-143829881D01*
X153606500Y-143898937D01*
X153605111Y-143968192D01*
X153600944Y-144033081D01*
X153578719Y-144141825D01*
X153531887Y-144214850D01*
X153450925Y-144241838D01*
X153370756Y-144214850D01*
X153323131Y-144141031D01*
X153300906Y-144032288D01*
X153296739Y-143967994D01*
X153295350Y-143898937D01*
X153296739Y-143829683D01*
X153300906Y-143764794D01*
X153323131Y-143656050D01*
X153369962Y-143583025D01*
X153450925Y-143556037D01*
X153531887Y-143583025D01*
G37*
G36*
X148769387Y-143583025D02*
G01*
X148816219Y-143656844D01*
X148838444Y-143765587D01*
X148842611Y-143829881D01*
X148844000Y-143898937D01*
X148842611Y-143968192D01*
X148838444Y-144033081D01*
X148816219Y-144141825D01*
X148769387Y-144214850D01*
X148688425Y-144241838D01*
X148608256Y-144214850D01*
X148560631Y-144141031D01*
X148538406Y-144032288D01*
X148534239Y-143967994D01*
X148532850Y-143898937D01*
X148534239Y-143829683D01*
X148538406Y-143764794D01*
X148560631Y-143656050D01*
X148607462Y-143583025D01*
X148688425Y-143556037D01*
X148769387Y-143583025D01*
G37*
G36*
X155374489Y-144532136D02*
G01*
X155314026Y-144633012D01*
X155243967Y-144727476D01*
X155164986Y-144814618D01*
X155077844Y-144893599D01*
X154983380Y-144963658D01*
X154882504Y-145024121D01*
X154776187Y-145074405D01*
X154665454Y-145114026D01*
X154551370Y-145142603D01*
X154435034Y-145159859D01*
X154317568Y-145165630D01*
X147078832Y-145165630D01*
X146961366Y-145159859D01*
X146845030Y-145142603D01*
X146730946Y-145114026D01*
X146620213Y-145074405D01*
X146513896Y-145024121D01*
X146413020Y-144963658D01*
X146318556Y-144893599D01*
X146231414Y-144814618D01*
X146152433Y-144727476D01*
X146082374Y-144633012D01*
X146021911Y-144532136D01*
X145971627Y-144425819D01*
X145959191Y-144391063D01*
X147591462Y-144391063D01*
X147786725Y-144391063D01*
X147786725Y-143995775D01*
X147792678Y-143905684D01*
X147810537Y-143844962D01*
X147907375Y-143798925D01*
X147951031Y-143800512D01*
X147996275Y-143805275D01*
X147996275Y-144391063D01*
X148191537Y-144391063D01*
X148191537Y-143898937D01*
X148334412Y-143898937D01*
X148340167Y-144018149D01*
X148357431Y-144121783D01*
X148386205Y-144209839D01*
X148426487Y-144282319D01*
X148496337Y-144354197D01*
X148583121Y-144397324D01*
X148686837Y-144411700D01*
X148793112Y-144397324D01*
X148881218Y-144354197D01*
X148951156Y-144282319D01*
X148991092Y-144209839D01*
X149019617Y-144121783D01*
X149036732Y-144018149D01*
X149042437Y-143898937D01*
X149036584Y-143779726D01*
X149019022Y-143676092D01*
X148989752Y-143588036D01*
X148948775Y-143515556D01*
X148878219Y-143443678D01*
X148791436Y-143400551D01*
X148688425Y-143386175D01*
X148582239Y-143400551D01*
X148494397Y-143443678D01*
X148424900Y-143515556D01*
X148385312Y-143588036D01*
X148357034Y-143676092D01*
X148340068Y-143779726D01*
X148334412Y-143898937D01*
X148191537Y-143898937D01*
X148191537Y-143668750D01*
X148132998Y-143654859D01*
X148062156Y-143641762D01*
X147981789Y-143632237D01*
X147894675Y-143629062D01*
X147813316Y-143635214D01*
X147747037Y-143653669D01*
X147654169Y-143723519D01*
X147605750Y-143831469D01*
X147595034Y-143897548D01*
X147591462Y-143970375D01*
X147591462Y-144391063D01*
X145959191Y-144391063D01*
X145932006Y-144315086D01*
X145903430Y-144201002D01*
X145886173Y-144084667D01*
X145880402Y-143967200D01*
X145886173Y-143849733D01*
X145903430Y-143733398D01*
X145932006Y-143619314D01*
X145971627Y-143508581D01*
X146021911Y-143402264D01*
X146082374Y-143301388D01*
X146097198Y-143281400D01*
X149953662Y-143281400D01*
X150394987Y-144653000D01*
X150598187Y-144653000D01*
X150172208Y-143338550D01*
X151479250Y-143338550D01*
X151512587Y-143497300D01*
X151603869Y-143471106D01*
X151707850Y-143457612D01*
X151759444Y-143462375D01*
X151802306Y-143483012D01*
X151831675Y-143528256D01*
X151842787Y-143605250D01*
X151842787Y-143644937D01*
X151536400Y-143644937D01*
X151536400Y-143806862D01*
X151842787Y-143806862D01*
X151842787Y-144391063D01*
X152039637Y-144391063D01*
X152039637Y-143806862D01*
X152203150Y-143806862D01*
X152203150Y-143644937D01*
X152039637Y-143644937D01*
X152039637Y-143602075D01*
X152033089Y-143519327D01*
X152013444Y-143452056D01*
X151942800Y-143356806D01*
X151906288Y-143338550D01*
X152273000Y-143338550D01*
X152306337Y-143497300D01*
X152397619Y-143471106D01*
X152501600Y-143457612D01*
X152553194Y-143462375D01*
X152596056Y-143483012D01*
X152625425Y-143528256D01*
X152636537Y-143605250D01*
X152636537Y-143644937D01*
X152330150Y-143644937D01*
X152330150Y-143806862D01*
X152636537Y-143806862D01*
X152636537Y-144391063D01*
X152833387Y-144391063D01*
X152833387Y-143898937D01*
X153096912Y-143898937D01*
X153102667Y-144018149D01*
X153119931Y-144121783D01*
X153148705Y-144209839D01*
X153188987Y-144282319D01*
X153258837Y-144354197D01*
X153345621Y-144397324D01*
X153449337Y-144411700D01*
X153555612Y-144397324D01*
X153643718Y-144354197D01*
X153713656Y-144282319D01*
X153753592Y-144209839D01*
X153782117Y-144121783D01*
X153799232Y-144018149D01*
X153804937Y-143898937D01*
X153799084Y-143779726D01*
X153781522Y-143676092D01*
X153752252Y-143588036D01*
X153711275Y-143515556D01*
X153640719Y-143443678D01*
X153553936Y-143400551D01*
X153450925Y-143386175D01*
X153344739Y-143400551D01*
X153256897Y-143443678D01*
X153187400Y-143515556D01*
X153147812Y-143588036D01*
X153119534Y-143676092D01*
X153102568Y-143779726D01*
X153096912Y-143898937D01*
X152833387Y-143898937D01*
X152833387Y-143806862D01*
X152996900Y-143806862D01*
X152996900Y-143644937D01*
X152833387Y-143644937D01*
X152833387Y-143602075D01*
X152826839Y-143519327D01*
X152807194Y-143452056D01*
X152736550Y-143356806D01*
X152634950Y-143306006D01*
X152517475Y-143290925D01*
X152390475Y-143302037D01*
X152273000Y-143338550D01*
X151906288Y-143338550D01*
X151841200Y-143306006D01*
X151723725Y-143290925D01*
X151596725Y-143302037D01*
X151479250Y-143338550D01*
X150172208Y-143338550D01*
X150153687Y-143281400D01*
X149953662Y-143281400D01*
X146097198Y-143281400D01*
X146152433Y-143206924D01*
X146231414Y-143119782D01*
X146318556Y-143040801D01*
X146413020Y-142970742D01*
X146513896Y-142910279D01*
X146620213Y-142859995D01*
X146730946Y-142820374D01*
X146845030Y-142791797D01*
X146961366Y-142774541D01*
X147078832Y-142768770D01*
X154317568Y-142768770D01*
X154435034Y-142774541D01*
X154551370Y-142791797D01*
X154665454Y-142820374D01*
X154776187Y-142859995D01*
X154882504Y-142910279D01*
X154983380Y-142970742D01*
X155077844Y-143040801D01*
X155164986Y-143119782D01*
X155243967Y-143206924D01*
X155314026Y-143301388D01*
X155374489Y-143402264D01*
X155424773Y-143508581D01*
X155464394Y-143619314D01*
X155492970Y-143733398D01*
X155510227Y-143849733D01*
X155515998Y-143967200D01*
X155510227Y-144084667D01*
X155492970Y-144201002D01*
X155464394Y-144315086D01*
X155424773Y-144425819D01*
X155374489Y-144532136D01*
G37*
%TO.C,R1*%
X144572400Y-116045064D02*
X144572400Y-114840936D01*
X142752400Y-116045064D02*
X142752400Y-114840936D01*
%TO.C,D2*%
X197071064Y-92104800D02*
X195866936Y-92104800D01*
X197071064Y-93924800D02*
X195866936Y-93924800D01*
%TD*%
M02*
